%TF.GenerationSoftware,KiCad,Pcbnew,9.0.6*%
%TF.CreationDate,2026-02-26T15:07:21-08:00*%
%TF.ProjectId,mic_preamp_v1,6d69635f-7072-4656-916d-705f76312e6b,rev?*%
%TF.SameCoordinates,Original*%
%TF.FileFunction,Legend,Top*%
%TF.FilePolarity,Positive*%
%FSLAX46Y46*%
G04 Gerber Fmt 4.6, Leading zero omitted, Abs format (unit mm)*
G04 Created by KiCad (PCBNEW 9.0.6) date 2026-02-26 15:07:21*
%MOMM*%
%LPD*%
G01*
G04 APERTURE LIST*
%ADD10C,0.127000*%
G04 APERTURE END LIST*
D10*
X140910638Y-120681496D02*
X141092067Y-120741972D01*
X141092067Y-120741972D02*
X141394448Y-120741972D01*
X141394448Y-120741972D02*
X141515400Y-120681496D01*
X141515400Y-120681496D02*
X141575876Y-120621019D01*
X141575876Y-120621019D02*
X141636353Y-120500067D01*
X141636353Y-120500067D02*
X141636353Y-120379115D01*
X141636353Y-120379115D02*
X141575876Y-120258162D01*
X141575876Y-120258162D02*
X141515400Y-120197686D01*
X141515400Y-120197686D02*
X141394448Y-120137210D01*
X141394448Y-120137210D02*
X141152543Y-120076734D01*
X141152543Y-120076734D02*
X141031591Y-120016257D01*
X141031591Y-120016257D02*
X140971114Y-119955781D01*
X140971114Y-119955781D02*
X140910638Y-119834829D01*
X140910638Y-119834829D02*
X140910638Y-119713876D01*
X140910638Y-119713876D02*
X140971114Y-119592924D01*
X140971114Y-119592924D02*
X141031591Y-119532448D01*
X141031591Y-119532448D02*
X141152543Y-119471972D01*
X141152543Y-119471972D02*
X141454924Y-119471972D01*
X141454924Y-119471972D02*
X141636353Y-119532448D01*
X142724924Y-120741972D02*
X142724924Y-120076734D01*
X142724924Y-120076734D02*
X142664448Y-119955781D01*
X142664448Y-119955781D02*
X142543496Y-119895305D01*
X142543496Y-119895305D02*
X142301591Y-119895305D01*
X142301591Y-119895305D02*
X142180638Y-119955781D01*
X142724924Y-120681496D02*
X142603972Y-120741972D01*
X142603972Y-120741972D02*
X142301591Y-120741972D01*
X142301591Y-120741972D02*
X142180638Y-120681496D01*
X142180638Y-120681496D02*
X142120162Y-120560543D01*
X142120162Y-120560543D02*
X142120162Y-120439591D01*
X142120162Y-120439591D02*
X142180638Y-120318638D01*
X142180638Y-120318638D02*
X142301591Y-120258162D01*
X142301591Y-120258162D02*
X142603972Y-120258162D01*
X142603972Y-120258162D02*
X142724924Y-120197686D01*
X143329686Y-120741972D02*
X143329686Y-119895305D01*
X143329686Y-120016257D02*
X143390163Y-119955781D01*
X143390163Y-119955781D02*
X143511115Y-119895305D01*
X143511115Y-119895305D02*
X143692544Y-119895305D01*
X143692544Y-119895305D02*
X143813496Y-119955781D01*
X143813496Y-119955781D02*
X143873972Y-120076734D01*
X143873972Y-120076734D02*
X143873972Y-120741972D01*
X143873972Y-120076734D02*
X143934448Y-119955781D01*
X143934448Y-119955781D02*
X144055401Y-119895305D01*
X144055401Y-119895305D02*
X144236829Y-119895305D01*
X144236829Y-119895305D02*
X144357782Y-119955781D01*
X144357782Y-119955781D02*
X144418258Y-120076734D01*
X144418258Y-120076734D02*
X144418258Y-120741972D01*
X145567305Y-119895305D02*
X145567305Y-120741972D01*
X145023019Y-119895305D02*
X145023019Y-120560543D01*
X145023019Y-120560543D02*
X145083496Y-120681496D01*
X145083496Y-120681496D02*
X145204448Y-120741972D01*
X145204448Y-120741972D02*
X145385877Y-120741972D01*
X145385877Y-120741972D02*
X145506829Y-120681496D01*
X145506829Y-120681496D02*
X145567305Y-120621019D01*
X146655877Y-120681496D02*
X146534925Y-120741972D01*
X146534925Y-120741972D02*
X146293020Y-120741972D01*
X146293020Y-120741972D02*
X146172067Y-120681496D01*
X146172067Y-120681496D02*
X146111591Y-120560543D01*
X146111591Y-120560543D02*
X146111591Y-120076734D01*
X146111591Y-120076734D02*
X146172067Y-119955781D01*
X146172067Y-119955781D02*
X146293020Y-119895305D01*
X146293020Y-119895305D02*
X146534925Y-119895305D01*
X146534925Y-119895305D02*
X146655877Y-119955781D01*
X146655877Y-119955781D02*
X146716353Y-120076734D01*
X146716353Y-120076734D02*
X146716353Y-120197686D01*
X146716353Y-120197686D02*
X146111591Y-120318638D01*
X147442067Y-120741972D02*
X147321115Y-120681496D01*
X147321115Y-120681496D02*
X147260638Y-120560543D01*
X147260638Y-120560543D02*
X147260638Y-119471972D01*
X149316829Y-120076734D02*
X148893495Y-120076734D01*
X148893495Y-120741972D02*
X148893495Y-119471972D01*
X148893495Y-119471972D02*
X149498257Y-119471972D01*
X149982066Y-120621019D02*
X150042543Y-120681496D01*
X150042543Y-120681496D02*
X149982066Y-120741972D01*
X149982066Y-120741972D02*
X149921590Y-120681496D01*
X149921590Y-120681496D02*
X149982066Y-120621019D01*
X149982066Y-120621019D02*
X149982066Y-120741972D01*
X151554447Y-120258162D02*
X152522067Y-120258162D01*
X154094447Y-120741972D02*
X154094447Y-119471972D01*
X154094447Y-119471972D02*
X154578257Y-119471972D01*
X154578257Y-119471972D02*
X154699209Y-119532448D01*
X154699209Y-119532448D02*
X154759686Y-119592924D01*
X154759686Y-119592924D02*
X154820162Y-119713876D01*
X154820162Y-119713876D02*
X154820162Y-119895305D01*
X154820162Y-119895305D02*
X154759686Y-120016257D01*
X154759686Y-120016257D02*
X154699209Y-120076734D01*
X154699209Y-120076734D02*
X154578257Y-120137210D01*
X154578257Y-120137210D02*
X154094447Y-120137210D01*
X155364447Y-120741972D02*
X155364447Y-119471972D01*
X155908733Y-120741972D02*
X155908733Y-120076734D01*
X155908733Y-120076734D02*
X155848257Y-119955781D01*
X155848257Y-119955781D02*
X155727305Y-119895305D01*
X155727305Y-119895305D02*
X155545876Y-119895305D01*
X155545876Y-119895305D02*
X155424924Y-119955781D01*
X155424924Y-119955781D02*
X155364447Y-120016257D01*
X156392543Y-119895305D02*
X156694924Y-120741972D01*
X156997305Y-119895305D02*
X156694924Y-120741972D01*
X156694924Y-120741972D02*
X156573972Y-121044353D01*
X156573972Y-121044353D02*
X156513495Y-121104829D01*
X156513495Y-121104829D02*
X156392543Y-121165305D01*
X157420638Y-120681496D02*
X157541591Y-120741972D01*
X157541591Y-120741972D02*
X157783495Y-120741972D01*
X157783495Y-120741972D02*
X157904448Y-120681496D01*
X157904448Y-120681496D02*
X157964924Y-120560543D01*
X157964924Y-120560543D02*
X157964924Y-120500067D01*
X157964924Y-120500067D02*
X157904448Y-120379115D01*
X157904448Y-120379115D02*
X157783495Y-120318638D01*
X157783495Y-120318638D02*
X157602067Y-120318638D01*
X157602067Y-120318638D02*
X157481114Y-120258162D01*
X157481114Y-120258162D02*
X157420638Y-120137210D01*
X157420638Y-120137210D02*
X157420638Y-120076734D01*
X157420638Y-120076734D02*
X157481114Y-119955781D01*
X157481114Y-119955781D02*
X157602067Y-119895305D01*
X157602067Y-119895305D02*
X157783495Y-119895305D01*
X157783495Y-119895305D02*
X157904448Y-119955781D01*
X158509209Y-120741972D02*
X158509209Y-119895305D01*
X158509209Y-119471972D02*
X158448733Y-119532448D01*
X158448733Y-119532448D02*
X158509209Y-119592924D01*
X158509209Y-119592924D02*
X158569686Y-119532448D01*
X158569686Y-119532448D02*
X158509209Y-119471972D01*
X158509209Y-119471972D02*
X158509209Y-119592924D01*
X159658257Y-120681496D02*
X159537305Y-120741972D01*
X159537305Y-120741972D02*
X159295400Y-120741972D01*
X159295400Y-120741972D02*
X159174448Y-120681496D01*
X159174448Y-120681496D02*
X159113971Y-120621019D01*
X159113971Y-120621019D02*
X159053495Y-120500067D01*
X159053495Y-120500067D02*
X159053495Y-120137210D01*
X159053495Y-120137210D02*
X159113971Y-120016257D01*
X159113971Y-120016257D02*
X159174448Y-119955781D01*
X159174448Y-119955781D02*
X159295400Y-119895305D01*
X159295400Y-119895305D02*
X159537305Y-119895305D01*
X159537305Y-119895305D02*
X159658257Y-119955781D01*
X160142066Y-120681496D02*
X160263019Y-120741972D01*
X160263019Y-120741972D02*
X160504923Y-120741972D01*
X160504923Y-120741972D02*
X160625876Y-120681496D01*
X160625876Y-120681496D02*
X160686352Y-120560543D01*
X160686352Y-120560543D02*
X160686352Y-120500067D01*
X160686352Y-120500067D02*
X160625876Y-120379115D01*
X160625876Y-120379115D02*
X160504923Y-120318638D01*
X160504923Y-120318638D02*
X160323495Y-120318638D01*
X160323495Y-120318638D02*
X160202542Y-120258162D01*
X160202542Y-120258162D02*
X160142066Y-120137210D01*
X160142066Y-120137210D02*
X160142066Y-120076734D01*
X160142066Y-120076734D02*
X160202542Y-119955781D01*
X160202542Y-119955781D02*
X160323495Y-119895305D01*
X160323495Y-119895305D02*
X160504923Y-119895305D01*
X160504923Y-119895305D02*
X160625876Y-119955781D01*
X162198256Y-120741972D02*
X162198256Y-119471972D01*
X163407780Y-120741972D02*
X162803018Y-120741972D01*
X162803018Y-120741972D02*
X162803018Y-119471972D01*
X164496352Y-119532448D02*
X164375399Y-119471972D01*
X164375399Y-119471972D02*
X164193971Y-119471972D01*
X164193971Y-119471972D02*
X164012542Y-119532448D01*
X164012542Y-119532448D02*
X163891590Y-119653400D01*
X163891590Y-119653400D02*
X163831113Y-119774353D01*
X163831113Y-119774353D02*
X163770637Y-120016257D01*
X163770637Y-120016257D02*
X163770637Y-120197686D01*
X163770637Y-120197686D02*
X163831113Y-120439591D01*
X163831113Y-120439591D02*
X163891590Y-120560543D01*
X163891590Y-120560543D02*
X164012542Y-120681496D01*
X164012542Y-120681496D02*
X164193971Y-120741972D01*
X164193971Y-120741972D02*
X164314923Y-120741972D01*
X164314923Y-120741972D02*
X164496352Y-120681496D01*
X164496352Y-120681496D02*
X164556828Y-120621019D01*
X164556828Y-120621019D02*
X164556828Y-120197686D01*
X164556828Y-120197686D02*
X164314923Y-120197686D01*
X166008256Y-119592924D02*
X166068732Y-119532448D01*
X166068732Y-119532448D02*
X166189685Y-119471972D01*
X166189685Y-119471972D02*
X166492066Y-119471972D01*
X166492066Y-119471972D02*
X166613018Y-119532448D01*
X166613018Y-119532448D02*
X166673494Y-119592924D01*
X166673494Y-119592924D02*
X166733971Y-119713876D01*
X166733971Y-119713876D02*
X166733971Y-119834829D01*
X166733971Y-119834829D02*
X166673494Y-120016257D01*
X166673494Y-120016257D02*
X165947780Y-120741972D01*
X165947780Y-120741972D02*
X166733971Y-120741972D01*
X167520161Y-119471972D02*
X167641114Y-119471972D01*
X167641114Y-119471972D02*
X167762066Y-119532448D01*
X167762066Y-119532448D02*
X167822542Y-119592924D01*
X167822542Y-119592924D02*
X167883018Y-119713876D01*
X167883018Y-119713876D02*
X167943495Y-119955781D01*
X167943495Y-119955781D02*
X167943495Y-120258162D01*
X167943495Y-120258162D02*
X167883018Y-120500067D01*
X167883018Y-120500067D02*
X167822542Y-120621019D01*
X167822542Y-120621019D02*
X167762066Y-120681496D01*
X167762066Y-120681496D02*
X167641114Y-120741972D01*
X167641114Y-120741972D02*
X167520161Y-120741972D01*
X167520161Y-120741972D02*
X167399209Y-120681496D01*
X167399209Y-120681496D02*
X167338733Y-120621019D01*
X167338733Y-120621019D02*
X167278256Y-120500067D01*
X167278256Y-120500067D02*
X167217780Y-120258162D01*
X167217780Y-120258162D02*
X167217780Y-119955781D01*
X167217780Y-119955781D02*
X167278256Y-119713876D01*
X167278256Y-119713876D02*
X167338733Y-119592924D01*
X167338733Y-119592924D02*
X167399209Y-119532448D01*
X167399209Y-119532448D02*
X167520161Y-119471972D01*
X168427304Y-119592924D02*
X168487780Y-119532448D01*
X168487780Y-119532448D02*
X168608733Y-119471972D01*
X168608733Y-119471972D02*
X168911114Y-119471972D01*
X168911114Y-119471972D02*
X169032066Y-119532448D01*
X169032066Y-119532448D02*
X169092542Y-119592924D01*
X169092542Y-119592924D02*
X169153019Y-119713876D01*
X169153019Y-119713876D02*
X169153019Y-119834829D01*
X169153019Y-119834829D02*
X169092542Y-120016257D01*
X169092542Y-120016257D02*
X168366828Y-120741972D01*
X168366828Y-120741972D02*
X169153019Y-120741972D01*
X170241590Y-119471972D02*
X169999685Y-119471972D01*
X169999685Y-119471972D02*
X169878733Y-119532448D01*
X169878733Y-119532448D02*
X169818257Y-119592924D01*
X169818257Y-119592924D02*
X169697304Y-119774353D01*
X169697304Y-119774353D02*
X169636828Y-120016257D01*
X169636828Y-120016257D02*
X169636828Y-120500067D01*
X169636828Y-120500067D02*
X169697304Y-120621019D01*
X169697304Y-120621019D02*
X169757781Y-120681496D01*
X169757781Y-120681496D02*
X169878733Y-120741972D01*
X169878733Y-120741972D02*
X170120638Y-120741972D01*
X170120638Y-120741972D02*
X170241590Y-120681496D01*
X170241590Y-120681496D02*
X170302066Y-120621019D01*
X170302066Y-120621019D02*
X170362543Y-120500067D01*
X170362543Y-120500067D02*
X170362543Y-120197686D01*
X170362543Y-120197686D02*
X170302066Y-120076734D01*
X170302066Y-120076734D02*
X170241590Y-120016257D01*
X170241590Y-120016257D02*
X170120638Y-119955781D01*
X170120638Y-119955781D02*
X169878733Y-119955781D01*
X169878733Y-119955781D02*
X169757781Y-120016257D01*
X169757781Y-120016257D02*
X169697304Y-120076734D01*
X169697304Y-120076734D02*
X169636828Y-120197686D01*
M02*
