%TF.GenerationSoftware,KiCad,Pcbnew,9.0.6*%
%TF.CreationDate,2026-02-26T15:07:23-08:00*%
%TF.ProjectId,mic_preamp_v1,6d69635f-7072-4656-916d-705f76312e6b,rev?*%
%TF.SameCoordinates,Original*%
%TF.FileFunction,Drillmap*%
%TF.FilePolarity,Positive*%
%FSLAX45Y45*%
G04 Gerber Fmt 4.5, Leading zero omitted, Abs format (unit mm)*
G04 Created by KiCad (PCBNEW 9.0.6) date 2026-02-26 15:07:23*
%MOMM*%
%LPD*%
G01*
G04 APERTURE LIST*
%ADD10C,0.050000*%
%ADD11C,0.200000*%
%ADD12C,0.100000*%
%ADD13C,0.101600*%
%ADD14C,0.120000*%
%ADD15C,0.228600*%
G04 APERTURE END LIST*
D10*
X13004800Y-6604000D02*
X12242800Y-7366000D01*
X18973800Y-8915400D02*
X18973800Y-7366000D01*
X12242800Y-10439400D02*
X12242800Y-11938000D01*
X18211800Y-6604000D02*
X18973800Y-7366000D01*
X18973800Y-10312400D02*
X18973800Y-11938000D01*
X18211800Y-12700000D02*
X13004800Y-12700000D01*
X13004800Y-12700000D02*
X12242800Y-11938000D01*
X13004800Y-6604000D02*
X18211800Y-6604000D01*
X12242800Y-8864600D02*
X12242800Y-7366000D01*
X18211800Y-12699973D02*
X18973800Y-11938000D01*
X12242800Y-8864600D02*
X12242800Y-10439400D01*
X18973800Y-10312400D02*
X18973800Y-8915400D01*
D11*
D12*
X14146530Y-10688391D02*
X14225270Y-10767131D01*
X14225270Y-10688391D02*
X14146530Y-10767131D01*
X14146530Y-11450390D02*
X14225270Y-11529130D01*
X14225270Y-11450390D02*
X14146530Y-11529130D01*
X14527530Y-9481891D02*
X14606270Y-9560631D01*
X14606270Y-9481891D02*
X14527530Y-9560631D01*
X14527530Y-10243891D02*
X14606270Y-10322631D01*
X14606270Y-10243891D02*
X14527530Y-10322631D01*
X15157030Y-8406391D02*
X15235770Y-8485131D01*
X15235770Y-8406391D02*
X15157030Y-8485131D01*
X15162530Y-10806430D02*
X15241270Y-10885170D01*
X15241270Y-10806430D02*
X15162530Y-10885170D01*
X15162530Y-11568430D02*
X15241270Y-11647170D01*
X15241270Y-11568430D02*
X15162530Y-11647170D01*
X15609530Y-10815391D02*
X15688270Y-10894131D01*
X15688270Y-10815391D02*
X15609530Y-10894131D01*
X15609530Y-11577390D02*
X15688270Y-11656130D01*
X15688270Y-11577390D02*
X15609530Y-11656130D01*
X15708630Y-9155430D02*
X15787370Y-9234170D01*
X15787370Y-9155430D02*
X15708630Y-9234170D01*
X15919030Y-8406391D02*
X15997770Y-8485131D01*
X15997770Y-8406391D02*
X15919030Y-8485131D01*
X15924530Y-10815391D02*
X16003270Y-10894131D01*
X16003270Y-10815391D02*
X15924530Y-10894131D01*
X15924530Y-11577390D02*
X16003270Y-11656130D01*
X16003270Y-11577390D02*
X15924530Y-11656130D01*
X16242030Y-10815391D02*
X16320770Y-10894131D01*
X16320770Y-10815391D02*
X16242030Y-10894131D01*
X16242030Y-11577390D02*
X16320770Y-11656130D01*
X16320770Y-11577390D02*
X16242030Y-11656130D01*
X16470630Y-9155430D02*
X16549370Y-9234170D01*
X16549370Y-9155430D02*
X16470630Y-9234170D01*
X13806800Y-8090160D02*
G75*
G02*
X13726800Y-8090160I-40000J0D01*
G01*
X13726800Y-8090160D02*
G75*
G02*
X13806800Y-8090160I40000J0D01*
G01*
X13806800Y-8340160D02*
G75*
G02*
X13726800Y-8340160I-40000J0D01*
G01*
X13726800Y-8340160D02*
G75*
G02*
X13806800Y-8340160I40000J0D01*
G01*
X14010000Y-9525774D02*
G75*
G02*
X13930000Y-9525774I-40000J0D01*
G01*
X13930000Y-9525774D02*
G75*
G02*
X14010000Y-9525774I40000J0D01*
G01*
X14260000Y-9525774D02*
G75*
G02*
X14180000Y-9525774I-40000J0D01*
G01*
X14180000Y-9525774D02*
G75*
G02*
X14260000Y-9525774I40000J0D01*
G01*
X14721200Y-8090160D02*
G75*
G02*
X14641200Y-8090160I-40000J0D01*
G01*
X14641200Y-8090160D02*
G75*
G02*
X14721200Y-8090160I40000J0D01*
G01*
X14721200Y-8340160D02*
G75*
G02*
X14641200Y-8340160I-40000J0D01*
G01*
X14641200Y-8340160D02*
G75*
G02*
X14721200Y-8340160I40000J0D01*
G01*
X14772000Y-11112761D02*
G75*
G02*
X14692000Y-11112761I-40000J0D01*
G01*
X14692000Y-11112761D02*
G75*
G02*
X14772000Y-11112761I40000J0D01*
G01*
X14772000Y-11362760D02*
G75*
G02*
X14692000Y-11362760I-40000J0D01*
G01*
X14692000Y-11362760D02*
G75*
G02*
X14772000Y-11362760I40000J0D01*
G01*
X14962500Y-9715500D02*
G75*
G02*
X14882500Y-9715500I-40000J0D01*
G01*
X14882500Y-9715500D02*
G75*
G02*
X14962500Y-9715500I40000J0D01*
G01*
X14962500Y-10477500D02*
G75*
G02*
X14882500Y-10477500I-40000J0D01*
G01*
X14882500Y-10477500D02*
G75*
G02*
X14962500Y-10477500I40000J0D01*
G01*
X15216500Y-9715500D02*
G75*
G02*
X15136500Y-9715500I-40000J0D01*
G01*
X15136500Y-9715500D02*
G75*
G02*
X15216500Y-9715500I40000J0D01*
G01*
X15216500Y-10477500D02*
G75*
G02*
X15136500Y-10477500I-40000J0D01*
G01*
X15136500Y-10477500D02*
G75*
G02*
X15216500Y-10477500I40000J0D01*
G01*
X15236400Y-8890261D02*
G75*
G02*
X15156400Y-8890261I-40000J0D01*
G01*
X15156400Y-8890261D02*
G75*
G02*
X15236400Y-8890261I40000J0D01*
G01*
X15470500Y-9715500D02*
G75*
G02*
X15390500Y-9715500I-40000J0D01*
G01*
X15390500Y-9715500D02*
G75*
G02*
X15470500Y-9715500I40000J0D01*
G01*
X15470500Y-10477500D02*
G75*
G02*
X15390500Y-10477500I-40000J0D01*
G01*
X15390500Y-10477500D02*
G75*
G02*
X15470500Y-10477500I40000J0D01*
G01*
X15486400Y-8890261D02*
G75*
G02*
X15406400Y-8890261I-40000J0D01*
G01*
X15406400Y-8890261D02*
G75*
G02*
X15486400Y-8890261I40000J0D01*
G01*
X15724500Y-9715500D02*
G75*
G02*
X15644500Y-9715500I-40000J0D01*
G01*
X15644500Y-9715500D02*
G75*
G02*
X15724500Y-9715500I40000J0D01*
G01*
X15724500Y-10477500D02*
G75*
G02*
X15644500Y-10477500I-40000J0D01*
G01*
X15644500Y-10477500D02*
G75*
G02*
X15724500Y-10477500I40000J0D01*
G01*
X16296000Y-9859200D02*
G75*
G02*
X16216000Y-9859200I-40000J0D01*
G01*
X16216000Y-9859200D02*
G75*
G02*
X16296000Y-9859200I40000J0D01*
G01*
X16296000Y-10109200D02*
G75*
G02*
X16216000Y-10109200I-40000J0D01*
G01*
X16216000Y-10109200D02*
G75*
G02*
X16296000Y-10109200I40000J0D01*
G01*
X16994500Y-10985761D02*
G75*
G02*
X16914500Y-10985761I-40000J0D01*
G01*
X16914500Y-10985761D02*
G75*
G02*
X16994500Y-10985761I40000J0D01*
G01*
X16994500Y-11235760D02*
G75*
G02*
X16914500Y-11235760I-40000J0D01*
G01*
X16914500Y-11235760D02*
G75*
G02*
X16994500Y-11235760I40000J0D01*
G01*
X13498830Y-9357360D02*
X13498830Y-9438640D01*
X13458190Y-9398000D02*
X13539470Y-9398000D01*
X13498830Y-9611360D02*
X13498830Y-9692640D01*
X13458190Y-9652000D02*
X13539470Y-9652000D01*
X16916400Y-9890760D02*
X16916400Y-9972040D01*
X16875760Y-9931400D02*
X16957040Y-9931400D01*
X16990060Y-9890760D02*
X16842740Y-9890760D01*
X16842740Y-9972040D02*
G75*
G02*
X16842740Y-9890760I0J40640D01*
G01*
X16842740Y-9972040D02*
X16990060Y-9972040D01*
X16990060Y-9972040D02*
G75*
G03*
X16990060Y-9890760I0J40640D01*
G01*
X18415000Y-9573260D02*
X18415000Y-9654540D01*
X18374360Y-9613900D02*
X18455640Y-9613900D01*
X18488660Y-9573260D02*
X18341340Y-9573260D01*
X18341340Y-9654540D02*
G75*
G02*
X18341340Y-9573260I0J40640D01*
G01*
X18341340Y-9654540D02*
X18488660Y-9654540D01*
X18488660Y-9654540D02*
G75*
G03*
X18488660Y-9573260I0J40640D01*
G01*
X13735120Y-7673481D02*
X13735120Y-7609840D01*
X13671480Y-7609840D01*
X13671480Y-7673481D01*
X13735120Y-7673481D01*
X14052620Y-8896420D02*
X14052620Y-8832780D01*
X13988980Y-8832780D01*
X13988980Y-8896420D01*
X14052620Y-8896420D01*
X14497120Y-7673481D02*
X14497120Y-7609840D01*
X14433480Y-7609840D01*
X14433480Y-7673481D01*
X14497120Y-7673481D01*
X14814620Y-8896420D02*
X14814620Y-8832780D01*
X14750980Y-8832780D01*
X14750980Y-8896420D01*
X14814620Y-8896420D01*
X12900300Y-7507500D02*
X12950300Y-7457500D01*
X12900300Y-7407500D01*
X12850300Y-7457500D01*
X12900300Y-7507500D01*
X12823300Y-7507500D02*
X12977300Y-7507500D01*
X12977300Y-7407500D02*
G75*
G02*
X12977300Y-7507500I0J-50000D01*
G01*
X12977300Y-7407500D02*
X12823300Y-7407500D01*
X12823300Y-7407500D02*
G75*
G03*
X12823300Y-7507500I0J-50000D01*
G01*
D13*
X12509500Y-7886700D02*
X12611100Y-7988300D01*
X12611100Y-7886700D02*
X12509500Y-7988300D01*
X12611100Y-7937500D02*
G75*
G02*
X12509500Y-7937500I-50800J0D01*
G01*
X12509500Y-7937500D02*
G75*
G02*
X12611100Y-7937500I50800J0D01*
G01*
D12*
X12509500Y-7861300D02*
X12509500Y-8013700D01*
X12611100Y-8013700D02*
G75*
G02*
X12509500Y-8013700I-50800J0D01*
G01*
X12611100Y-8013700D02*
X12611100Y-7861300D01*
X12611100Y-7861300D02*
G75*
G03*
X12509500Y-7861300I-50800J0D01*
G01*
D13*
X13139500Y-7886700D02*
X13241100Y-7988300D01*
X13241100Y-7886700D02*
X13139500Y-7988300D01*
X13241100Y-7937500D02*
G75*
G02*
X13139500Y-7937500I-50800J0D01*
G01*
X13139500Y-7937500D02*
G75*
G02*
X13241100Y-7937500I50800J0D01*
G01*
D12*
X13241100Y-8013700D02*
X13241100Y-7861300D01*
X13139500Y-7861300D02*
G75*
G02*
X13241100Y-7861300I50800J0D01*
G01*
X13139500Y-7861300D02*
X13139500Y-8013700D01*
X13139500Y-8013700D02*
G75*
G03*
X13241100Y-8013700I50800J0D01*
G01*
D14*
X16602400Y-7788600D02*
X16722400Y-7908600D01*
X16722400Y-7788600D02*
X16602400Y-7908600D01*
X16662400Y-7788600D02*
X16662400Y-7908600D01*
X16602400Y-7848600D02*
X16722400Y-7848600D01*
X16602400Y-8042600D02*
X16722400Y-8162600D01*
X16722400Y-8042600D02*
X16602400Y-8162600D01*
X16662400Y-8042600D02*
X16662400Y-8162600D01*
X16602400Y-8102600D02*
X16722400Y-8102600D01*
X16602400Y-8296600D02*
X16722400Y-8416600D01*
X16722400Y-8296600D02*
X16602400Y-8416600D01*
X16662400Y-8296600D02*
X16662400Y-8416600D01*
X16602400Y-8356600D02*
X16722400Y-8356600D01*
D15*
X12890500Y-9029700D02*
X13119100Y-9258300D01*
X13119100Y-9029700D02*
X12890500Y-9258300D01*
X13085623Y-9224823D02*
X13085623Y-9063177D01*
X12923977Y-9063177D01*
X12923977Y-9224823D01*
X13085623Y-9224823D01*
X12890500Y-10045700D02*
X13119100Y-10274300D01*
X13119100Y-10045700D02*
X12890500Y-10274300D01*
X13085623Y-10240823D02*
X13085623Y-10079177D01*
X12923977Y-10079177D01*
X12923977Y-10240823D01*
X13085623Y-10240823D01*
D11*
X12501077Y-13013984D02*
X12501077Y-12813984D01*
X12501077Y-12813984D02*
X12548696Y-12813984D01*
X12548696Y-12813984D02*
X12577267Y-12823508D01*
X12577267Y-12823508D02*
X12596315Y-12842555D01*
X12596315Y-12842555D02*
X12605839Y-12861603D01*
X12605839Y-12861603D02*
X12615362Y-12899698D01*
X12615362Y-12899698D02*
X12615362Y-12928269D01*
X12615362Y-12928269D02*
X12605839Y-12966365D01*
X12605839Y-12966365D02*
X12596315Y-12985412D01*
X12596315Y-12985412D02*
X12577267Y-13004460D01*
X12577267Y-13004460D02*
X12548696Y-13013984D01*
X12548696Y-13013984D02*
X12501077Y-13013984D01*
X12701077Y-13013984D02*
X12701077Y-12880650D01*
X12701077Y-12918746D02*
X12710601Y-12899698D01*
X12710601Y-12899698D02*
X12720124Y-12890174D01*
X12720124Y-12890174D02*
X12739172Y-12880650D01*
X12739172Y-12880650D02*
X12758220Y-12880650D01*
X12824886Y-13013984D02*
X12824886Y-12880650D01*
X12824886Y-12813984D02*
X12815362Y-12823508D01*
X12815362Y-12823508D02*
X12824886Y-12833031D01*
X12824886Y-12833031D02*
X12834410Y-12823508D01*
X12834410Y-12823508D02*
X12824886Y-12813984D01*
X12824886Y-12813984D02*
X12824886Y-12833031D01*
X12948696Y-13013984D02*
X12929648Y-13004460D01*
X12929648Y-13004460D02*
X12920124Y-12985412D01*
X12920124Y-12985412D02*
X12920124Y-12813984D01*
X13053458Y-13013984D02*
X13034410Y-13004460D01*
X13034410Y-13004460D02*
X13024886Y-12985412D01*
X13024886Y-12985412D02*
X13024886Y-12813984D01*
X13282029Y-13013984D02*
X13282029Y-12813984D01*
X13282029Y-12813984D02*
X13348696Y-12956841D01*
X13348696Y-12956841D02*
X13415362Y-12813984D01*
X13415362Y-12813984D02*
X13415362Y-13013984D01*
X13596315Y-13013984D02*
X13596315Y-12909222D01*
X13596315Y-12909222D02*
X13586791Y-12890174D01*
X13586791Y-12890174D02*
X13567743Y-12880650D01*
X13567743Y-12880650D02*
X13529648Y-12880650D01*
X13529648Y-12880650D02*
X13510601Y-12890174D01*
X13596315Y-13004460D02*
X13577267Y-13013984D01*
X13577267Y-13013984D02*
X13529648Y-13013984D01*
X13529648Y-13013984D02*
X13510601Y-13004460D01*
X13510601Y-13004460D02*
X13501077Y-12985412D01*
X13501077Y-12985412D02*
X13501077Y-12966365D01*
X13501077Y-12966365D02*
X13510601Y-12947317D01*
X13510601Y-12947317D02*
X13529648Y-12937793D01*
X13529648Y-12937793D02*
X13577267Y-12937793D01*
X13577267Y-12937793D02*
X13596315Y-12928269D01*
X13691553Y-12880650D02*
X13691553Y-13080650D01*
X13691553Y-12890174D02*
X13710601Y-12880650D01*
X13710601Y-12880650D02*
X13748696Y-12880650D01*
X13748696Y-12880650D02*
X13767743Y-12890174D01*
X13767743Y-12890174D02*
X13777267Y-12899698D01*
X13777267Y-12899698D02*
X13786791Y-12918746D01*
X13786791Y-12918746D02*
X13786791Y-12975888D01*
X13786791Y-12975888D02*
X13777267Y-12994936D01*
X13777267Y-12994936D02*
X13767743Y-13004460D01*
X13767743Y-13004460D02*
X13748696Y-13013984D01*
X13748696Y-13013984D02*
X13710601Y-13013984D01*
X13710601Y-13013984D02*
X13691553Y-13004460D01*
X13872505Y-12994936D02*
X13882029Y-13004460D01*
X13882029Y-13004460D02*
X13872505Y-13013984D01*
X13872505Y-13013984D02*
X13862982Y-13004460D01*
X13862982Y-13004460D02*
X13872505Y-12994936D01*
X13872505Y-12994936D02*
X13872505Y-13013984D01*
X13872505Y-12890174D02*
X13882029Y-12899698D01*
X13882029Y-12899698D02*
X13872505Y-12909222D01*
X13872505Y-12909222D02*
X13862982Y-12899698D01*
X13862982Y-12899698D02*
X13872505Y-12890174D01*
X13872505Y-12890174D02*
X13872505Y-12909222D01*
D12*
X12161560Y-13303130D02*
X12240300Y-13381870D01*
X12240300Y-13303130D02*
X12161560Y-13381870D01*
D11*
X12539172Y-13233984D02*
X12558220Y-13233984D01*
X12558220Y-13233984D02*
X12577267Y-13243508D01*
X12577267Y-13243508D02*
X12586791Y-13253031D01*
X12586791Y-13253031D02*
X12596315Y-13272079D01*
X12596315Y-13272079D02*
X12605839Y-13310174D01*
X12605839Y-13310174D02*
X12605839Y-13357793D01*
X12605839Y-13357793D02*
X12596315Y-13395888D01*
X12596315Y-13395888D02*
X12586791Y-13414936D01*
X12586791Y-13414936D02*
X12577267Y-13424460D01*
X12577267Y-13424460D02*
X12558220Y-13433984D01*
X12558220Y-13433984D02*
X12539172Y-13433984D01*
X12539172Y-13433984D02*
X12520124Y-13424460D01*
X12520124Y-13424460D02*
X12510601Y-13414936D01*
X12510601Y-13414936D02*
X12501077Y-13395888D01*
X12501077Y-13395888D02*
X12491553Y-13357793D01*
X12491553Y-13357793D02*
X12491553Y-13310174D01*
X12491553Y-13310174D02*
X12501077Y-13272079D01*
X12501077Y-13272079D02*
X12510601Y-13253031D01*
X12510601Y-13253031D02*
X12520124Y-13243508D01*
X12520124Y-13243508D02*
X12539172Y-13233984D01*
X12691553Y-13414936D02*
X12701077Y-13424460D01*
X12701077Y-13424460D02*
X12691553Y-13433984D01*
X12691553Y-13433984D02*
X12682029Y-13424460D01*
X12682029Y-13424460D02*
X12691553Y-13414936D01*
X12691553Y-13414936D02*
X12691553Y-13433984D01*
X12767743Y-13233984D02*
X12901077Y-13233984D01*
X12901077Y-13233984D02*
X12815362Y-13433984D01*
X13005839Y-13319698D02*
X12986791Y-13310174D01*
X12986791Y-13310174D02*
X12977267Y-13300650D01*
X12977267Y-13300650D02*
X12967743Y-13281603D01*
X12967743Y-13281603D02*
X12967743Y-13272079D01*
X12967743Y-13272079D02*
X12977267Y-13253031D01*
X12977267Y-13253031D02*
X12986791Y-13243508D01*
X12986791Y-13243508D02*
X13005839Y-13233984D01*
X13005839Y-13233984D02*
X13043934Y-13233984D01*
X13043934Y-13233984D02*
X13062982Y-13243508D01*
X13062982Y-13243508D02*
X13072505Y-13253031D01*
X13072505Y-13253031D02*
X13082029Y-13272079D01*
X13082029Y-13272079D02*
X13082029Y-13281603D01*
X13082029Y-13281603D02*
X13072505Y-13300650D01*
X13072505Y-13300650D02*
X13062982Y-13310174D01*
X13062982Y-13310174D02*
X13043934Y-13319698D01*
X13043934Y-13319698D02*
X13005839Y-13319698D01*
X13005839Y-13319698D02*
X12986791Y-13329222D01*
X12986791Y-13329222D02*
X12977267Y-13338746D01*
X12977267Y-13338746D02*
X12967743Y-13357793D01*
X12967743Y-13357793D02*
X12967743Y-13395888D01*
X12967743Y-13395888D02*
X12977267Y-13414936D01*
X12977267Y-13414936D02*
X12986791Y-13424460D01*
X12986791Y-13424460D02*
X13005839Y-13433984D01*
X13005839Y-13433984D02*
X13043934Y-13433984D01*
X13043934Y-13433984D02*
X13062982Y-13424460D01*
X13062982Y-13424460D02*
X13072505Y-13414936D01*
X13072505Y-13414936D02*
X13082029Y-13395888D01*
X13082029Y-13395888D02*
X13082029Y-13357793D01*
X13082029Y-13357793D02*
X13072505Y-13338746D01*
X13072505Y-13338746D02*
X13062982Y-13329222D01*
X13062982Y-13329222D02*
X13043934Y-13319698D01*
X13148696Y-13233984D02*
X13282029Y-13233984D01*
X13282029Y-13233984D02*
X13196315Y-13433984D01*
X13358220Y-13433984D02*
X13358220Y-13300650D01*
X13358220Y-13319698D02*
X13367743Y-13310174D01*
X13367743Y-13310174D02*
X13386791Y-13300650D01*
X13386791Y-13300650D02*
X13415363Y-13300650D01*
X13415363Y-13300650D02*
X13434410Y-13310174D01*
X13434410Y-13310174D02*
X13443934Y-13329222D01*
X13443934Y-13329222D02*
X13443934Y-13433984D01*
X13443934Y-13329222D02*
X13453458Y-13310174D01*
X13453458Y-13310174D02*
X13472505Y-13300650D01*
X13472505Y-13300650D02*
X13501077Y-13300650D01*
X13501077Y-13300650D02*
X13520124Y-13310174D01*
X13520124Y-13310174D02*
X13529648Y-13329222D01*
X13529648Y-13329222D02*
X13529648Y-13433984D01*
X13624886Y-13433984D02*
X13624886Y-13300650D01*
X13624886Y-13319698D02*
X13634410Y-13310174D01*
X13634410Y-13310174D02*
X13653458Y-13300650D01*
X13653458Y-13300650D02*
X13682029Y-13300650D01*
X13682029Y-13300650D02*
X13701077Y-13310174D01*
X13701077Y-13310174D02*
X13710601Y-13329222D01*
X13710601Y-13329222D02*
X13710601Y-13433984D01*
X13710601Y-13329222D02*
X13720124Y-13310174D01*
X13720124Y-13310174D02*
X13739172Y-13300650D01*
X13739172Y-13300650D02*
X13767743Y-13300650D01*
X13767743Y-13300650D02*
X13786791Y-13310174D01*
X13786791Y-13310174D02*
X13796315Y-13329222D01*
X13796315Y-13329222D02*
X13796315Y-13433984D01*
X14186791Y-13224460D02*
X14015363Y-13481603D01*
X14443934Y-13233984D02*
X14462982Y-13233984D01*
X14462982Y-13233984D02*
X14482029Y-13243508D01*
X14482029Y-13243508D02*
X14491553Y-13253031D01*
X14491553Y-13253031D02*
X14501077Y-13272079D01*
X14501077Y-13272079D02*
X14510601Y-13310174D01*
X14510601Y-13310174D02*
X14510601Y-13357793D01*
X14510601Y-13357793D02*
X14501077Y-13395888D01*
X14501077Y-13395888D02*
X14491553Y-13414936D01*
X14491553Y-13414936D02*
X14482029Y-13424460D01*
X14482029Y-13424460D02*
X14462982Y-13433984D01*
X14462982Y-13433984D02*
X14443934Y-13433984D01*
X14443934Y-13433984D02*
X14424886Y-13424460D01*
X14424886Y-13424460D02*
X14415363Y-13414936D01*
X14415363Y-13414936D02*
X14405839Y-13395888D01*
X14405839Y-13395888D02*
X14396315Y-13357793D01*
X14396315Y-13357793D02*
X14396315Y-13310174D01*
X14396315Y-13310174D02*
X14405839Y-13272079D01*
X14405839Y-13272079D02*
X14415363Y-13253031D01*
X14415363Y-13253031D02*
X14424886Y-13243508D01*
X14424886Y-13243508D02*
X14443934Y-13233984D01*
X14596315Y-13414936D02*
X14605839Y-13424460D01*
X14605839Y-13424460D02*
X14596315Y-13433984D01*
X14596315Y-13433984D02*
X14586791Y-13424460D01*
X14586791Y-13424460D02*
X14596315Y-13414936D01*
X14596315Y-13414936D02*
X14596315Y-13433984D01*
X14729648Y-13233984D02*
X14748696Y-13233984D01*
X14748696Y-13233984D02*
X14767744Y-13243508D01*
X14767744Y-13243508D02*
X14777267Y-13253031D01*
X14777267Y-13253031D02*
X14786791Y-13272079D01*
X14786791Y-13272079D02*
X14796315Y-13310174D01*
X14796315Y-13310174D02*
X14796315Y-13357793D01*
X14796315Y-13357793D02*
X14786791Y-13395888D01*
X14786791Y-13395888D02*
X14777267Y-13414936D01*
X14777267Y-13414936D02*
X14767744Y-13424460D01*
X14767744Y-13424460D02*
X14748696Y-13433984D01*
X14748696Y-13433984D02*
X14729648Y-13433984D01*
X14729648Y-13433984D02*
X14710601Y-13424460D01*
X14710601Y-13424460D02*
X14701077Y-13414936D01*
X14701077Y-13414936D02*
X14691553Y-13395888D01*
X14691553Y-13395888D02*
X14682029Y-13357793D01*
X14682029Y-13357793D02*
X14682029Y-13310174D01*
X14682029Y-13310174D02*
X14691553Y-13272079D01*
X14691553Y-13272079D02*
X14701077Y-13253031D01*
X14701077Y-13253031D02*
X14710601Y-13243508D01*
X14710601Y-13243508D02*
X14729648Y-13233984D01*
X14862982Y-13233984D02*
X14986791Y-13233984D01*
X14986791Y-13233984D02*
X14920125Y-13310174D01*
X14920125Y-13310174D02*
X14948696Y-13310174D01*
X14948696Y-13310174D02*
X14967744Y-13319698D01*
X14967744Y-13319698D02*
X14977267Y-13329222D01*
X14977267Y-13329222D02*
X14986791Y-13348269D01*
X14986791Y-13348269D02*
X14986791Y-13395888D01*
X14986791Y-13395888D02*
X14977267Y-13414936D01*
X14977267Y-13414936D02*
X14967744Y-13424460D01*
X14967744Y-13424460D02*
X14948696Y-13433984D01*
X14948696Y-13433984D02*
X14891553Y-13433984D01*
X14891553Y-13433984D02*
X14872506Y-13424460D01*
X14872506Y-13424460D02*
X14862982Y-13414936D01*
X15177267Y-13433984D02*
X15062982Y-13433984D01*
X15120125Y-13433984D02*
X15120125Y-13233984D01*
X15120125Y-13233984D02*
X15101077Y-13262555D01*
X15101077Y-13262555D02*
X15082029Y-13281603D01*
X15082029Y-13281603D02*
X15062982Y-13291127D01*
X15301077Y-13233984D02*
X15320125Y-13233984D01*
X15320125Y-13233984D02*
X15339172Y-13243508D01*
X15339172Y-13243508D02*
X15348696Y-13253031D01*
X15348696Y-13253031D02*
X15358220Y-13272079D01*
X15358220Y-13272079D02*
X15367744Y-13310174D01*
X15367744Y-13310174D02*
X15367744Y-13357793D01*
X15367744Y-13357793D02*
X15358220Y-13395888D01*
X15358220Y-13395888D02*
X15348696Y-13414936D01*
X15348696Y-13414936D02*
X15339172Y-13424460D01*
X15339172Y-13424460D02*
X15320125Y-13433984D01*
X15320125Y-13433984D02*
X15301077Y-13433984D01*
X15301077Y-13433984D02*
X15282029Y-13424460D01*
X15282029Y-13424460D02*
X15272506Y-13414936D01*
X15272506Y-13414936D02*
X15262982Y-13395888D01*
X15262982Y-13395888D02*
X15253458Y-13357793D01*
X15253458Y-13357793D02*
X15253458Y-13310174D01*
X15253458Y-13310174D02*
X15262982Y-13272079D01*
X15262982Y-13272079D02*
X15272506Y-13253031D01*
X15272506Y-13253031D02*
X15282029Y-13243508D01*
X15282029Y-13243508D02*
X15301077Y-13233984D01*
X15443934Y-13233984D02*
X15443934Y-13272079D01*
X15520125Y-13233984D02*
X15520125Y-13272079D01*
X15815363Y-13510174D02*
X15805839Y-13500650D01*
X15805839Y-13500650D02*
X15786791Y-13472079D01*
X15786791Y-13472079D02*
X15777268Y-13453031D01*
X15777268Y-13453031D02*
X15767744Y-13424460D01*
X15767744Y-13424460D02*
X15758220Y-13376841D01*
X15758220Y-13376841D02*
X15758220Y-13338746D01*
X15758220Y-13338746D02*
X15767744Y-13291127D01*
X15767744Y-13291127D02*
X15777268Y-13262555D01*
X15777268Y-13262555D02*
X15786791Y-13243508D01*
X15786791Y-13243508D02*
X15805839Y-13214936D01*
X15805839Y-13214936D02*
X15815363Y-13205412D01*
X15996315Y-13433984D02*
X15882029Y-13433984D01*
X15939172Y-13433984D02*
X15939172Y-13233984D01*
X15939172Y-13233984D02*
X15920125Y-13262555D01*
X15920125Y-13262555D02*
X15901077Y-13281603D01*
X15901077Y-13281603D02*
X15882029Y-13291127D01*
X16167744Y-13233984D02*
X16129648Y-13233984D01*
X16129648Y-13233984D02*
X16110601Y-13243508D01*
X16110601Y-13243508D02*
X16101077Y-13253031D01*
X16101077Y-13253031D02*
X16082029Y-13281603D01*
X16082029Y-13281603D02*
X16072506Y-13319698D01*
X16072506Y-13319698D02*
X16072506Y-13395888D01*
X16072506Y-13395888D02*
X16082029Y-13414936D01*
X16082029Y-13414936D02*
X16091553Y-13424460D01*
X16091553Y-13424460D02*
X16110601Y-13433984D01*
X16110601Y-13433984D02*
X16148696Y-13433984D01*
X16148696Y-13433984D02*
X16167744Y-13424460D01*
X16167744Y-13424460D02*
X16177268Y-13414936D01*
X16177268Y-13414936D02*
X16186791Y-13395888D01*
X16186791Y-13395888D02*
X16186791Y-13348269D01*
X16186791Y-13348269D02*
X16177268Y-13329222D01*
X16177268Y-13329222D02*
X16167744Y-13319698D01*
X16167744Y-13319698D02*
X16148696Y-13310174D01*
X16148696Y-13310174D02*
X16110601Y-13310174D01*
X16110601Y-13310174D02*
X16091553Y-13319698D01*
X16091553Y-13319698D02*
X16082029Y-13329222D01*
X16082029Y-13329222D02*
X16072506Y-13348269D01*
X16424887Y-13433984D02*
X16424887Y-13233984D01*
X16510601Y-13433984D02*
X16510601Y-13329222D01*
X16510601Y-13329222D02*
X16501077Y-13310174D01*
X16501077Y-13310174D02*
X16482030Y-13300650D01*
X16482030Y-13300650D02*
X16453458Y-13300650D01*
X16453458Y-13300650D02*
X16434410Y-13310174D01*
X16434410Y-13310174D02*
X16424887Y-13319698D01*
X16634410Y-13433984D02*
X16615363Y-13424460D01*
X16615363Y-13424460D02*
X16605839Y-13414936D01*
X16605839Y-13414936D02*
X16596315Y-13395888D01*
X16596315Y-13395888D02*
X16596315Y-13338746D01*
X16596315Y-13338746D02*
X16605839Y-13319698D01*
X16605839Y-13319698D02*
X16615363Y-13310174D01*
X16615363Y-13310174D02*
X16634410Y-13300650D01*
X16634410Y-13300650D02*
X16662982Y-13300650D01*
X16662982Y-13300650D02*
X16682030Y-13310174D01*
X16682030Y-13310174D02*
X16691553Y-13319698D01*
X16691553Y-13319698D02*
X16701077Y-13338746D01*
X16701077Y-13338746D02*
X16701077Y-13395888D01*
X16701077Y-13395888D02*
X16691553Y-13414936D01*
X16691553Y-13414936D02*
X16682030Y-13424460D01*
X16682030Y-13424460D02*
X16662982Y-13433984D01*
X16662982Y-13433984D02*
X16634410Y-13433984D01*
X16815363Y-13433984D02*
X16796315Y-13424460D01*
X16796315Y-13424460D02*
X16786792Y-13405412D01*
X16786792Y-13405412D02*
X16786792Y-13233984D01*
X16967744Y-13424460D02*
X16948696Y-13433984D01*
X16948696Y-13433984D02*
X16910601Y-13433984D01*
X16910601Y-13433984D02*
X16891553Y-13424460D01*
X16891553Y-13424460D02*
X16882030Y-13405412D01*
X16882030Y-13405412D02*
X16882030Y-13329222D01*
X16882030Y-13329222D02*
X16891553Y-13310174D01*
X16891553Y-13310174D02*
X16910601Y-13300650D01*
X16910601Y-13300650D02*
X16948696Y-13300650D01*
X16948696Y-13300650D02*
X16967744Y-13310174D01*
X16967744Y-13310174D02*
X16977268Y-13329222D01*
X16977268Y-13329222D02*
X16977268Y-13348269D01*
X16977268Y-13348269D02*
X16882030Y-13367317D01*
X17053458Y-13424460D02*
X17072506Y-13433984D01*
X17072506Y-13433984D02*
X17110601Y-13433984D01*
X17110601Y-13433984D02*
X17129649Y-13424460D01*
X17129649Y-13424460D02*
X17139173Y-13405412D01*
X17139173Y-13405412D02*
X17139173Y-13395888D01*
X17139173Y-13395888D02*
X17129649Y-13376841D01*
X17129649Y-13376841D02*
X17110601Y-13367317D01*
X17110601Y-13367317D02*
X17082030Y-13367317D01*
X17082030Y-13367317D02*
X17062982Y-13357793D01*
X17062982Y-13357793D02*
X17053458Y-13338746D01*
X17053458Y-13338746D02*
X17053458Y-13329222D01*
X17053458Y-13329222D02*
X17062982Y-13310174D01*
X17062982Y-13310174D02*
X17082030Y-13300650D01*
X17082030Y-13300650D02*
X17110601Y-13300650D01*
X17110601Y-13300650D02*
X17129649Y-13310174D01*
X17205839Y-13510174D02*
X17215363Y-13500650D01*
X17215363Y-13500650D02*
X17234411Y-13472079D01*
X17234411Y-13472079D02*
X17243934Y-13453031D01*
X17243934Y-13453031D02*
X17253458Y-13424460D01*
X17253458Y-13424460D02*
X17262982Y-13376841D01*
X17262982Y-13376841D02*
X17262982Y-13338746D01*
X17262982Y-13338746D02*
X17253458Y-13291127D01*
X17253458Y-13291127D02*
X17243934Y-13262555D01*
X17243934Y-13262555D02*
X17234411Y-13243508D01*
X17234411Y-13243508D02*
X17215363Y-13214936D01*
X17215363Y-13214936D02*
X17205839Y-13205412D01*
D12*
X12240300Y-13606500D02*
G75*
G02*
X12160300Y-13606500I-40000J0D01*
G01*
X12160300Y-13606500D02*
G75*
G02*
X12240300Y-13606500I40000J0D01*
G01*
D11*
X12539172Y-13497984D02*
X12558220Y-13497984D01*
X12558220Y-13497984D02*
X12577267Y-13507508D01*
X12577267Y-13507508D02*
X12586791Y-13517031D01*
X12586791Y-13517031D02*
X12596315Y-13536079D01*
X12596315Y-13536079D02*
X12605839Y-13574174D01*
X12605839Y-13574174D02*
X12605839Y-13621793D01*
X12605839Y-13621793D02*
X12596315Y-13659888D01*
X12596315Y-13659888D02*
X12586791Y-13678936D01*
X12586791Y-13678936D02*
X12577267Y-13688460D01*
X12577267Y-13688460D02*
X12558220Y-13697984D01*
X12558220Y-13697984D02*
X12539172Y-13697984D01*
X12539172Y-13697984D02*
X12520124Y-13688460D01*
X12520124Y-13688460D02*
X12510601Y-13678936D01*
X12510601Y-13678936D02*
X12501077Y-13659888D01*
X12501077Y-13659888D02*
X12491553Y-13621793D01*
X12491553Y-13621793D02*
X12491553Y-13574174D01*
X12491553Y-13574174D02*
X12501077Y-13536079D01*
X12501077Y-13536079D02*
X12510601Y-13517031D01*
X12510601Y-13517031D02*
X12520124Y-13507508D01*
X12520124Y-13507508D02*
X12539172Y-13497984D01*
X12691553Y-13678936D02*
X12701077Y-13688460D01*
X12701077Y-13688460D02*
X12691553Y-13697984D01*
X12691553Y-13697984D02*
X12682029Y-13688460D01*
X12682029Y-13688460D02*
X12691553Y-13678936D01*
X12691553Y-13678936D02*
X12691553Y-13697984D01*
X12815362Y-13583698D02*
X12796315Y-13574174D01*
X12796315Y-13574174D02*
X12786791Y-13564650D01*
X12786791Y-13564650D02*
X12777267Y-13545603D01*
X12777267Y-13545603D02*
X12777267Y-13536079D01*
X12777267Y-13536079D02*
X12786791Y-13517031D01*
X12786791Y-13517031D02*
X12796315Y-13507508D01*
X12796315Y-13507508D02*
X12815362Y-13497984D01*
X12815362Y-13497984D02*
X12853458Y-13497984D01*
X12853458Y-13497984D02*
X12872505Y-13507508D01*
X12872505Y-13507508D02*
X12882029Y-13517031D01*
X12882029Y-13517031D02*
X12891553Y-13536079D01*
X12891553Y-13536079D02*
X12891553Y-13545603D01*
X12891553Y-13545603D02*
X12882029Y-13564650D01*
X12882029Y-13564650D02*
X12872505Y-13574174D01*
X12872505Y-13574174D02*
X12853458Y-13583698D01*
X12853458Y-13583698D02*
X12815362Y-13583698D01*
X12815362Y-13583698D02*
X12796315Y-13593222D01*
X12796315Y-13593222D02*
X12786791Y-13602746D01*
X12786791Y-13602746D02*
X12777267Y-13621793D01*
X12777267Y-13621793D02*
X12777267Y-13659888D01*
X12777267Y-13659888D02*
X12786791Y-13678936D01*
X12786791Y-13678936D02*
X12796315Y-13688460D01*
X12796315Y-13688460D02*
X12815362Y-13697984D01*
X12815362Y-13697984D02*
X12853458Y-13697984D01*
X12853458Y-13697984D02*
X12872505Y-13688460D01*
X12872505Y-13688460D02*
X12882029Y-13678936D01*
X12882029Y-13678936D02*
X12891553Y-13659888D01*
X12891553Y-13659888D02*
X12891553Y-13621793D01*
X12891553Y-13621793D02*
X12882029Y-13602746D01*
X12882029Y-13602746D02*
X12872505Y-13593222D01*
X12872505Y-13593222D02*
X12853458Y-13583698D01*
X13015362Y-13497984D02*
X13034410Y-13497984D01*
X13034410Y-13497984D02*
X13053458Y-13507508D01*
X13053458Y-13507508D02*
X13062982Y-13517031D01*
X13062982Y-13517031D02*
X13072505Y-13536079D01*
X13072505Y-13536079D02*
X13082029Y-13574174D01*
X13082029Y-13574174D02*
X13082029Y-13621793D01*
X13082029Y-13621793D02*
X13072505Y-13659888D01*
X13072505Y-13659888D02*
X13062982Y-13678936D01*
X13062982Y-13678936D02*
X13053458Y-13688460D01*
X13053458Y-13688460D02*
X13034410Y-13697984D01*
X13034410Y-13697984D02*
X13015362Y-13697984D01*
X13015362Y-13697984D02*
X12996315Y-13688460D01*
X12996315Y-13688460D02*
X12986791Y-13678936D01*
X12986791Y-13678936D02*
X12977267Y-13659888D01*
X12977267Y-13659888D02*
X12967743Y-13621793D01*
X12967743Y-13621793D02*
X12967743Y-13574174D01*
X12967743Y-13574174D02*
X12977267Y-13536079D01*
X12977267Y-13536079D02*
X12986791Y-13517031D01*
X12986791Y-13517031D02*
X12996315Y-13507508D01*
X12996315Y-13507508D02*
X13015362Y-13497984D01*
X13205839Y-13497984D02*
X13224886Y-13497984D01*
X13224886Y-13497984D02*
X13243934Y-13507508D01*
X13243934Y-13507508D02*
X13253458Y-13517031D01*
X13253458Y-13517031D02*
X13262982Y-13536079D01*
X13262982Y-13536079D02*
X13272505Y-13574174D01*
X13272505Y-13574174D02*
X13272505Y-13621793D01*
X13272505Y-13621793D02*
X13262982Y-13659888D01*
X13262982Y-13659888D02*
X13253458Y-13678936D01*
X13253458Y-13678936D02*
X13243934Y-13688460D01*
X13243934Y-13688460D02*
X13224886Y-13697984D01*
X13224886Y-13697984D02*
X13205839Y-13697984D01*
X13205839Y-13697984D02*
X13186791Y-13688460D01*
X13186791Y-13688460D02*
X13177267Y-13678936D01*
X13177267Y-13678936D02*
X13167743Y-13659888D01*
X13167743Y-13659888D02*
X13158220Y-13621793D01*
X13158220Y-13621793D02*
X13158220Y-13574174D01*
X13158220Y-13574174D02*
X13167743Y-13536079D01*
X13167743Y-13536079D02*
X13177267Y-13517031D01*
X13177267Y-13517031D02*
X13186791Y-13507508D01*
X13186791Y-13507508D02*
X13205839Y-13497984D01*
X13358220Y-13697984D02*
X13358220Y-13564650D01*
X13358220Y-13583698D02*
X13367743Y-13574174D01*
X13367743Y-13574174D02*
X13386791Y-13564650D01*
X13386791Y-13564650D02*
X13415363Y-13564650D01*
X13415363Y-13564650D02*
X13434410Y-13574174D01*
X13434410Y-13574174D02*
X13443934Y-13593222D01*
X13443934Y-13593222D02*
X13443934Y-13697984D01*
X13443934Y-13593222D02*
X13453458Y-13574174D01*
X13453458Y-13574174D02*
X13472505Y-13564650D01*
X13472505Y-13564650D02*
X13501077Y-13564650D01*
X13501077Y-13564650D02*
X13520124Y-13574174D01*
X13520124Y-13574174D02*
X13529648Y-13593222D01*
X13529648Y-13593222D02*
X13529648Y-13697984D01*
X13624886Y-13697984D02*
X13624886Y-13564650D01*
X13624886Y-13583698D02*
X13634410Y-13574174D01*
X13634410Y-13574174D02*
X13653458Y-13564650D01*
X13653458Y-13564650D02*
X13682029Y-13564650D01*
X13682029Y-13564650D02*
X13701077Y-13574174D01*
X13701077Y-13574174D02*
X13710601Y-13593222D01*
X13710601Y-13593222D02*
X13710601Y-13697984D01*
X13710601Y-13593222D02*
X13720124Y-13574174D01*
X13720124Y-13574174D02*
X13739172Y-13564650D01*
X13739172Y-13564650D02*
X13767743Y-13564650D01*
X13767743Y-13564650D02*
X13786791Y-13574174D01*
X13786791Y-13574174D02*
X13796315Y-13593222D01*
X13796315Y-13593222D02*
X13796315Y-13697984D01*
X14186791Y-13488460D02*
X14015363Y-13745603D01*
X14443934Y-13497984D02*
X14462982Y-13497984D01*
X14462982Y-13497984D02*
X14482029Y-13507508D01*
X14482029Y-13507508D02*
X14491553Y-13517031D01*
X14491553Y-13517031D02*
X14501077Y-13536079D01*
X14501077Y-13536079D02*
X14510601Y-13574174D01*
X14510601Y-13574174D02*
X14510601Y-13621793D01*
X14510601Y-13621793D02*
X14501077Y-13659888D01*
X14501077Y-13659888D02*
X14491553Y-13678936D01*
X14491553Y-13678936D02*
X14482029Y-13688460D01*
X14482029Y-13688460D02*
X14462982Y-13697984D01*
X14462982Y-13697984D02*
X14443934Y-13697984D01*
X14443934Y-13697984D02*
X14424886Y-13688460D01*
X14424886Y-13688460D02*
X14415363Y-13678936D01*
X14415363Y-13678936D02*
X14405839Y-13659888D01*
X14405839Y-13659888D02*
X14396315Y-13621793D01*
X14396315Y-13621793D02*
X14396315Y-13574174D01*
X14396315Y-13574174D02*
X14405839Y-13536079D01*
X14405839Y-13536079D02*
X14415363Y-13517031D01*
X14415363Y-13517031D02*
X14424886Y-13507508D01*
X14424886Y-13507508D02*
X14443934Y-13497984D01*
X14596315Y-13678936D02*
X14605839Y-13688460D01*
X14605839Y-13688460D02*
X14596315Y-13697984D01*
X14596315Y-13697984D02*
X14586791Y-13688460D01*
X14586791Y-13688460D02*
X14596315Y-13678936D01*
X14596315Y-13678936D02*
X14596315Y-13697984D01*
X14729648Y-13497984D02*
X14748696Y-13497984D01*
X14748696Y-13497984D02*
X14767744Y-13507508D01*
X14767744Y-13507508D02*
X14777267Y-13517031D01*
X14777267Y-13517031D02*
X14786791Y-13536079D01*
X14786791Y-13536079D02*
X14796315Y-13574174D01*
X14796315Y-13574174D02*
X14796315Y-13621793D01*
X14796315Y-13621793D02*
X14786791Y-13659888D01*
X14786791Y-13659888D02*
X14777267Y-13678936D01*
X14777267Y-13678936D02*
X14767744Y-13688460D01*
X14767744Y-13688460D02*
X14748696Y-13697984D01*
X14748696Y-13697984D02*
X14729648Y-13697984D01*
X14729648Y-13697984D02*
X14710601Y-13688460D01*
X14710601Y-13688460D02*
X14701077Y-13678936D01*
X14701077Y-13678936D02*
X14691553Y-13659888D01*
X14691553Y-13659888D02*
X14682029Y-13621793D01*
X14682029Y-13621793D02*
X14682029Y-13574174D01*
X14682029Y-13574174D02*
X14691553Y-13536079D01*
X14691553Y-13536079D02*
X14701077Y-13517031D01*
X14701077Y-13517031D02*
X14710601Y-13507508D01*
X14710601Y-13507508D02*
X14729648Y-13497984D01*
X14862982Y-13497984D02*
X14986791Y-13497984D01*
X14986791Y-13497984D02*
X14920125Y-13574174D01*
X14920125Y-13574174D02*
X14948696Y-13574174D01*
X14948696Y-13574174D02*
X14967744Y-13583698D01*
X14967744Y-13583698D02*
X14977267Y-13593222D01*
X14977267Y-13593222D02*
X14986791Y-13612269D01*
X14986791Y-13612269D02*
X14986791Y-13659888D01*
X14986791Y-13659888D02*
X14977267Y-13678936D01*
X14977267Y-13678936D02*
X14967744Y-13688460D01*
X14967744Y-13688460D02*
X14948696Y-13697984D01*
X14948696Y-13697984D02*
X14891553Y-13697984D01*
X14891553Y-13697984D02*
X14872506Y-13688460D01*
X14872506Y-13688460D02*
X14862982Y-13678936D01*
X15177267Y-13697984D02*
X15062982Y-13697984D01*
X15120125Y-13697984D02*
X15120125Y-13497984D01*
X15120125Y-13497984D02*
X15101077Y-13526555D01*
X15101077Y-13526555D02*
X15082029Y-13545603D01*
X15082029Y-13545603D02*
X15062982Y-13555127D01*
X15358220Y-13497984D02*
X15262982Y-13497984D01*
X15262982Y-13497984D02*
X15253458Y-13593222D01*
X15253458Y-13593222D02*
X15262982Y-13583698D01*
X15262982Y-13583698D02*
X15282029Y-13574174D01*
X15282029Y-13574174D02*
X15329648Y-13574174D01*
X15329648Y-13574174D02*
X15348696Y-13583698D01*
X15348696Y-13583698D02*
X15358220Y-13593222D01*
X15358220Y-13593222D02*
X15367744Y-13612269D01*
X15367744Y-13612269D02*
X15367744Y-13659888D01*
X15367744Y-13659888D02*
X15358220Y-13678936D01*
X15358220Y-13678936D02*
X15348696Y-13688460D01*
X15348696Y-13688460D02*
X15329648Y-13697984D01*
X15329648Y-13697984D02*
X15282029Y-13697984D01*
X15282029Y-13697984D02*
X15262982Y-13688460D01*
X15262982Y-13688460D02*
X15253458Y-13678936D01*
X15443934Y-13497984D02*
X15443934Y-13536079D01*
X15520125Y-13497984D02*
X15520125Y-13536079D01*
X15815363Y-13774174D02*
X15805839Y-13764650D01*
X15805839Y-13764650D02*
X15786791Y-13736079D01*
X15786791Y-13736079D02*
X15777268Y-13717031D01*
X15777268Y-13717031D02*
X15767744Y-13688460D01*
X15767744Y-13688460D02*
X15758220Y-13640841D01*
X15758220Y-13640841D02*
X15758220Y-13602746D01*
X15758220Y-13602746D02*
X15767744Y-13555127D01*
X15767744Y-13555127D02*
X15777268Y-13526555D01*
X15777268Y-13526555D02*
X15786791Y-13507508D01*
X15786791Y-13507508D02*
X15805839Y-13478936D01*
X15805839Y-13478936D02*
X15815363Y-13469412D01*
X15882029Y-13517031D02*
X15891553Y-13507508D01*
X15891553Y-13507508D02*
X15910601Y-13497984D01*
X15910601Y-13497984D02*
X15958220Y-13497984D01*
X15958220Y-13497984D02*
X15977268Y-13507508D01*
X15977268Y-13507508D02*
X15986791Y-13517031D01*
X15986791Y-13517031D02*
X15996315Y-13536079D01*
X15996315Y-13536079D02*
X15996315Y-13555127D01*
X15996315Y-13555127D02*
X15986791Y-13583698D01*
X15986791Y-13583698D02*
X15872506Y-13697984D01*
X15872506Y-13697984D02*
X15996315Y-13697984D01*
X16072506Y-13517031D02*
X16082029Y-13507508D01*
X16082029Y-13507508D02*
X16101077Y-13497984D01*
X16101077Y-13497984D02*
X16148696Y-13497984D01*
X16148696Y-13497984D02*
X16167744Y-13507508D01*
X16167744Y-13507508D02*
X16177268Y-13517031D01*
X16177268Y-13517031D02*
X16186791Y-13536079D01*
X16186791Y-13536079D02*
X16186791Y-13555127D01*
X16186791Y-13555127D02*
X16177268Y-13583698D01*
X16177268Y-13583698D02*
X16062982Y-13697984D01*
X16062982Y-13697984D02*
X16186791Y-13697984D01*
X16424887Y-13697984D02*
X16424887Y-13497984D01*
X16510601Y-13697984D02*
X16510601Y-13593222D01*
X16510601Y-13593222D02*
X16501077Y-13574174D01*
X16501077Y-13574174D02*
X16482030Y-13564650D01*
X16482030Y-13564650D02*
X16453458Y-13564650D01*
X16453458Y-13564650D02*
X16434410Y-13574174D01*
X16434410Y-13574174D02*
X16424887Y-13583698D01*
X16634410Y-13697984D02*
X16615363Y-13688460D01*
X16615363Y-13688460D02*
X16605839Y-13678936D01*
X16605839Y-13678936D02*
X16596315Y-13659888D01*
X16596315Y-13659888D02*
X16596315Y-13602746D01*
X16596315Y-13602746D02*
X16605839Y-13583698D01*
X16605839Y-13583698D02*
X16615363Y-13574174D01*
X16615363Y-13574174D02*
X16634410Y-13564650D01*
X16634410Y-13564650D02*
X16662982Y-13564650D01*
X16662982Y-13564650D02*
X16682030Y-13574174D01*
X16682030Y-13574174D02*
X16691553Y-13583698D01*
X16691553Y-13583698D02*
X16701077Y-13602746D01*
X16701077Y-13602746D02*
X16701077Y-13659888D01*
X16701077Y-13659888D02*
X16691553Y-13678936D01*
X16691553Y-13678936D02*
X16682030Y-13688460D01*
X16682030Y-13688460D02*
X16662982Y-13697984D01*
X16662982Y-13697984D02*
X16634410Y-13697984D01*
X16815363Y-13697984D02*
X16796315Y-13688460D01*
X16796315Y-13688460D02*
X16786792Y-13669412D01*
X16786792Y-13669412D02*
X16786792Y-13497984D01*
X16967744Y-13688460D02*
X16948696Y-13697984D01*
X16948696Y-13697984D02*
X16910601Y-13697984D01*
X16910601Y-13697984D02*
X16891553Y-13688460D01*
X16891553Y-13688460D02*
X16882030Y-13669412D01*
X16882030Y-13669412D02*
X16882030Y-13593222D01*
X16882030Y-13593222D02*
X16891553Y-13574174D01*
X16891553Y-13574174D02*
X16910601Y-13564650D01*
X16910601Y-13564650D02*
X16948696Y-13564650D01*
X16948696Y-13564650D02*
X16967744Y-13574174D01*
X16967744Y-13574174D02*
X16977268Y-13593222D01*
X16977268Y-13593222D02*
X16977268Y-13612269D01*
X16977268Y-13612269D02*
X16882030Y-13631317D01*
X17053458Y-13688460D02*
X17072506Y-13697984D01*
X17072506Y-13697984D02*
X17110601Y-13697984D01*
X17110601Y-13697984D02*
X17129649Y-13688460D01*
X17129649Y-13688460D02*
X17139173Y-13669412D01*
X17139173Y-13669412D02*
X17139173Y-13659888D01*
X17139173Y-13659888D02*
X17129649Y-13640841D01*
X17129649Y-13640841D02*
X17110601Y-13631317D01*
X17110601Y-13631317D02*
X17082030Y-13631317D01*
X17082030Y-13631317D02*
X17062982Y-13621793D01*
X17062982Y-13621793D02*
X17053458Y-13602746D01*
X17053458Y-13602746D02*
X17053458Y-13593222D01*
X17053458Y-13593222D02*
X17062982Y-13574174D01*
X17062982Y-13574174D02*
X17082030Y-13564650D01*
X17082030Y-13564650D02*
X17110601Y-13564650D01*
X17110601Y-13564650D02*
X17129649Y-13574174D01*
X17205839Y-13774174D02*
X17215363Y-13764650D01*
X17215363Y-13764650D02*
X17234411Y-13736079D01*
X17234411Y-13736079D02*
X17243934Y-13717031D01*
X17243934Y-13717031D02*
X17253458Y-13688460D01*
X17253458Y-13688460D02*
X17262982Y-13640841D01*
X17262982Y-13640841D02*
X17262982Y-13602746D01*
X17262982Y-13602746D02*
X17253458Y-13555127D01*
X17253458Y-13555127D02*
X17243934Y-13526555D01*
X17243934Y-13526555D02*
X17234411Y-13507508D01*
X17234411Y-13507508D02*
X17215363Y-13478936D01*
X17215363Y-13478936D02*
X17205839Y-13469412D01*
D12*
X12199660Y-13829860D02*
X12199660Y-13911140D01*
X12159020Y-13870500D02*
X12240300Y-13870500D01*
D11*
X12539172Y-13761984D02*
X12558220Y-13761984D01*
X12558220Y-13761984D02*
X12577267Y-13771508D01*
X12577267Y-13771508D02*
X12586791Y-13781031D01*
X12586791Y-13781031D02*
X12596315Y-13800079D01*
X12596315Y-13800079D02*
X12605839Y-13838174D01*
X12605839Y-13838174D02*
X12605839Y-13885793D01*
X12605839Y-13885793D02*
X12596315Y-13923888D01*
X12596315Y-13923888D02*
X12586791Y-13942936D01*
X12586791Y-13942936D02*
X12577267Y-13952460D01*
X12577267Y-13952460D02*
X12558220Y-13961984D01*
X12558220Y-13961984D02*
X12539172Y-13961984D01*
X12539172Y-13961984D02*
X12520124Y-13952460D01*
X12520124Y-13952460D02*
X12510601Y-13942936D01*
X12510601Y-13942936D02*
X12501077Y-13923888D01*
X12501077Y-13923888D02*
X12491553Y-13885793D01*
X12491553Y-13885793D02*
X12491553Y-13838174D01*
X12491553Y-13838174D02*
X12501077Y-13800079D01*
X12501077Y-13800079D02*
X12510601Y-13781031D01*
X12510601Y-13781031D02*
X12520124Y-13771508D01*
X12520124Y-13771508D02*
X12539172Y-13761984D01*
X12691553Y-13942936D02*
X12701077Y-13952460D01*
X12701077Y-13952460D02*
X12691553Y-13961984D01*
X12691553Y-13961984D02*
X12682029Y-13952460D01*
X12682029Y-13952460D02*
X12691553Y-13942936D01*
X12691553Y-13942936D02*
X12691553Y-13961984D01*
X12815362Y-13847698D02*
X12796315Y-13838174D01*
X12796315Y-13838174D02*
X12786791Y-13828650D01*
X12786791Y-13828650D02*
X12777267Y-13809603D01*
X12777267Y-13809603D02*
X12777267Y-13800079D01*
X12777267Y-13800079D02*
X12786791Y-13781031D01*
X12786791Y-13781031D02*
X12796315Y-13771508D01*
X12796315Y-13771508D02*
X12815362Y-13761984D01*
X12815362Y-13761984D02*
X12853458Y-13761984D01*
X12853458Y-13761984D02*
X12872505Y-13771508D01*
X12872505Y-13771508D02*
X12882029Y-13781031D01*
X12882029Y-13781031D02*
X12891553Y-13800079D01*
X12891553Y-13800079D02*
X12891553Y-13809603D01*
X12891553Y-13809603D02*
X12882029Y-13828650D01*
X12882029Y-13828650D02*
X12872505Y-13838174D01*
X12872505Y-13838174D02*
X12853458Y-13847698D01*
X12853458Y-13847698D02*
X12815362Y-13847698D01*
X12815362Y-13847698D02*
X12796315Y-13857222D01*
X12796315Y-13857222D02*
X12786791Y-13866746D01*
X12786791Y-13866746D02*
X12777267Y-13885793D01*
X12777267Y-13885793D02*
X12777267Y-13923888D01*
X12777267Y-13923888D02*
X12786791Y-13942936D01*
X12786791Y-13942936D02*
X12796315Y-13952460D01*
X12796315Y-13952460D02*
X12815362Y-13961984D01*
X12815362Y-13961984D02*
X12853458Y-13961984D01*
X12853458Y-13961984D02*
X12872505Y-13952460D01*
X12872505Y-13952460D02*
X12882029Y-13942936D01*
X12882029Y-13942936D02*
X12891553Y-13923888D01*
X12891553Y-13923888D02*
X12891553Y-13885793D01*
X12891553Y-13885793D02*
X12882029Y-13866746D01*
X12882029Y-13866746D02*
X12872505Y-13857222D01*
X12872505Y-13857222D02*
X12853458Y-13847698D01*
X13082029Y-13961984D02*
X12967743Y-13961984D01*
X13024886Y-13961984D02*
X13024886Y-13761984D01*
X13024886Y-13761984D02*
X13005839Y-13790555D01*
X13005839Y-13790555D02*
X12986791Y-13809603D01*
X12986791Y-13809603D02*
X12967743Y-13819127D01*
X13148696Y-13761984D02*
X13272505Y-13761984D01*
X13272505Y-13761984D02*
X13205839Y-13838174D01*
X13205839Y-13838174D02*
X13234410Y-13838174D01*
X13234410Y-13838174D02*
X13253458Y-13847698D01*
X13253458Y-13847698D02*
X13262982Y-13857222D01*
X13262982Y-13857222D02*
X13272505Y-13876269D01*
X13272505Y-13876269D02*
X13272505Y-13923888D01*
X13272505Y-13923888D02*
X13262982Y-13942936D01*
X13262982Y-13942936D02*
X13253458Y-13952460D01*
X13253458Y-13952460D02*
X13234410Y-13961984D01*
X13234410Y-13961984D02*
X13177267Y-13961984D01*
X13177267Y-13961984D02*
X13158220Y-13952460D01*
X13158220Y-13952460D02*
X13148696Y-13942936D01*
X13358220Y-13961984D02*
X13358220Y-13828650D01*
X13358220Y-13847698D02*
X13367743Y-13838174D01*
X13367743Y-13838174D02*
X13386791Y-13828650D01*
X13386791Y-13828650D02*
X13415363Y-13828650D01*
X13415363Y-13828650D02*
X13434410Y-13838174D01*
X13434410Y-13838174D02*
X13443934Y-13857222D01*
X13443934Y-13857222D02*
X13443934Y-13961984D01*
X13443934Y-13857222D02*
X13453458Y-13838174D01*
X13453458Y-13838174D02*
X13472505Y-13828650D01*
X13472505Y-13828650D02*
X13501077Y-13828650D01*
X13501077Y-13828650D02*
X13520124Y-13838174D01*
X13520124Y-13838174D02*
X13529648Y-13857222D01*
X13529648Y-13857222D02*
X13529648Y-13961984D01*
X13624886Y-13961984D02*
X13624886Y-13828650D01*
X13624886Y-13847698D02*
X13634410Y-13838174D01*
X13634410Y-13838174D02*
X13653458Y-13828650D01*
X13653458Y-13828650D02*
X13682029Y-13828650D01*
X13682029Y-13828650D02*
X13701077Y-13838174D01*
X13701077Y-13838174D02*
X13710601Y-13857222D01*
X13710601Y-13857222D02*
X13710601Y-13961984D01*
X13710601Y-13857222D02*
X13720124Y-13838174D01*
X13720124Y-13838174D02*
X13739172Y-13828650D01*
X13739172Y-13828650D02*
X13767743Y-13828650D01*
X13767743Y-13828650D02*
X13786791Y-13838174D01*
X13786791Y-13838174D02*
X13796315Y-13857222D01*
X13796315Y-13857222D02*
X13796315Y-13961984D01*
X14186791Y-13752460D02*
X14015363Y-14009603D01*
X14443934Y-13761984D02*
X14462982Y-13761984D01*
X14462982Y-13761984D02*
X14482029Y-13771508D01*
X14482029Y-13771508D02*
X14491553Y-13781031D01*
X14491553Y-13781031D02*
X14501077Y-13800079D01*
X14501077Y-13800079D02*
X14510601Y-13838174D01*
X14510601Y-13838174D02*
X14510601Y-13885793D01*
X14510601Y-13885793D02*
X14501077Y-13923888D01*
X14501077Y-13923888D02*
X14491553Y-13942936D01*
X14491553Y-13942936D02*
X14482029Y-13952460D01*
X14482029Y-13952460D02*
X14462982Y-13961984D01*
X14462982Y-13961984D02*
X14443934Y-13961984D01*
X14443934Y-13961984D02*
X14424886Y-13952460D01*
X14424886Y-13952460D02*
X14415363Y-13942936D01*
X14415363Y-13942936D02*
X14405839Y-13923888D01*
X14405839Y-13923888D02*
X14396315Y-13885793D01*
X14396315Y-13885793D02*
X14396315Y-13838174D01*
X14396315Y-13838174D02*
X14405839Y-13800079D01*
X14405839Y-13800079D02*
X14415363Y-13781031D01*
X14415363Y-13781031D02*
X14424886Y-13771508D01*
X14424886Y-13771508D02*
X14443934Y-13761984D01*
X14596315Y-13942936D02*
X14605839Y-13952460D01*
X14605839Y-13952460D02*
X14596315Y-13961984D01*
X14596315Y-13961984D02*
X14586791Y-13952460D01*
X14586791Y-13952460D02*
X14596315Y-13942936D01*
X14596315Y-13942936D02*
X14596315Y-13961984D01*
X14729648Y-13761984D02*
X14748696Y-13761984D01*
X14748696Y-13761984D02*
X14767744Y-13771508D01*
X14767744Y-13771508D02*
X14777267Y-13781031D01*
X14777267Y-13781031D02*
X14786791Y-13800079D01*
X14786791Y-13800079D02*
X14796315Y-13838174D01*
X14796315Y-13838174D02*
X14796315Y-13885793D01*
X14796315Y-13885793D02*
X14786791Y-13923888D01*
X14786791Y-13923888D02*
X14777267Y-13942936D01*
X14777267Y-13942936D02*
X14767744Y-13952460D01*
X14767744Y-13952460D02*
X14748696Y-13961984D01*
X14748696Y-13961984D02*
X14729648Y-13961984D01*
X14729648Y-13961984D02*
X14710601Y-13952460D01*
X14710601Y-13952460D02*
X14701077Y-13942936D01*
X14701077Y-13942936D02*
X14691553Y-13923888D01*
X14691553Y-13923888D02*
X14682029Y-13885793D01*
X14682029Y-13885793D02*
X14682029Y-13838174D01*
X14682029Y-13838174D02*
X14691553Y-13800079D01*
X14691553Y-13800079D02*
X14701077Y-13781031D01*
X14701077Y-13781031D02*
X14710601Y-13771508D01*
X14710601Y-13771508D02*
X14729648Y-13761984D01*
X14862982Y-13761984D02*
X14986791Y-13761984D01*
X14986791Y-13761984D02*
X14920125Y-13838174D01*
X14920125Y-13838174D02*
X14948696Y-13838174D01*
X14948696Y-13838174D02*
X14967744Y-13847698D01*
X14967744Y-13847698D02*
X14977267Y-13857222D01*
X14977267Y-13857222D02*
X14986791Y-13876269D01*
X14986791Y-13876269D02*
X14986791Y-13923888D01*
X14986791Y-13923888D02*
X14977267Y-13942936D01*
X14977267Y-13942936D02*
X14967744Y-13952460D01*
X14967744Y-13952460D02*
X14948696Y-13961984D01*
X14948696Y-13961984D02*
X14891553Y-13961984D01*
X14891553Y-13961984D02*
X14872506Y-13952460D01*
X14872506Y-13952460D02*
X14862982Y-13942936D01*
X15062982Y-13781031D02*
X15072506Y-13771508D01*
X15072506Y-13771508D02*
X15091553Y-13761984D01*
X15091553Y-13761984D02*
X15139172Y-13761984D01*
X15139172Y-13761984D02*
X15158220Y-13771508D01*
X15158220Y-13771508D02*
X15167744Y-13781031D01*
X15167744Y-13781031D02*
X15177267Y-13800079D01*
X15177267Y-13800079D02*
X15177267Y-13819127D01*
X15177267Y-13819127D02*
X15167744Y-13847698D01*
X15167744Y-13847698D02*
X15053458Y-13961984D01*
X15053458Y-13961984D02*
X15177267Y-13961984D01*
X15301077Y-13761984D02*
X15320125Y-13761984D01*
X15320125Y-13761984D02*
X15339172Y-13771508D01*
X15339172Y-13771508D02*
X15348696Y-13781031D01*
X15348696Y-13781031D02*
X15358220Y-13800079D01*
X15358220Y-13800079D02*
X15367744Y-13838174D01*
X15367744Y-13838174D02*
X15367744Y-13885793D01*
X15367744Y-13885793D02*
X15358220Y-13923888D01*
X15358220Y-13923888D02*
X15348696Y-13942936D01*
X15348696Y-13942936D02*
X15339172Y-13952460D01*
X15339172Y-13952460D02*
X15320125Y-13961984D01*
X15320125Y-13961984D02*
X15301077Y-13961984D01*
X15301077Y-13961984D02*
X15282029Y-13952460D01*
X15282029Y-13952460D02*
X15272506Y-13942936D01*
X15272506Y-13942936D02*
X15262982Y-13923888D01*
X15262982Y-13923888D02*
X15253458Y-13885793D01*
X15253458Y-13885793D02*
X15253458Y-13838174D01*
X15253458Y-13838174D02*
X15262982Y-13800079D01*
X15262982Y-13800079D02*
X15272506Y-13781031D01*
X15272506Y-13781031D02*
X15282029Y-13771508D01*
X15282029Y-13771508D02*
X15301077Y-13761984D01*
X15443934Y-13761984D02*
X15443934Y-13800079D01*
X15520125Y-13761984D02*
X15520125Y-13800079D01*
X15815363Y-14038174D02*
X15805839Y-14028650D01*
X15805839Y-14028650D02*
X15786791Y-14000079D01*
X15786791Y-14000079D02*
X15777268Y-13981031D01*
X15777268Y-13981031D02*
X15767744Y-13952460D01*
X15767744Y-13952460D02*
X15758220Y-13904841D01*
X15758220Y-13904841D02*
X15758220Y-13866746D01*
X15758220Y-13866746D02*
X15767744Y-13819127D01*
X15767744Y-13819127D02*
X15777268Y-13790555D01*
X15777268Y-13790555D02*
X15786791Y-13771508D01*
X15786791Y-13771508D02*
X15805839Y-13742936D01*
X15805839Y-13742936D02*
X15815363Y-13733412D01*
X15882029Y-13781031D02*
X15891553Y-13771508D01*
X15891553Y-13771508D02*
X15910601Y-13761984D01*
X15910601Y-13761984D02*
X15958220Y-13761984D01*
X15958220Y-13761984D02*
X15977268Y-13771508D01*
X15977268Y-13771508D02*
X15986791Y-13781031D01*
X15986791Y-13781031D02*
X15996315Y-13800079D01*
X15996315Y-13800079D02*
X15996315Y-13819127D01*
X15996315Y-13819127D02*
X15986791Y-13847698D01*
X15986791Y-13847698D02*
X15872506Y-13961984D01*
X15872506Y-13961984D02*
X15996315Y-13961984D01*
X16234410Y-13961984D02*
X16234410Y-13761984D01*
X16320125Y-13961984D02*
X16320125Y-13857222D01*
X16320125Y-13857222D02*
X16310601Y-13838174D01*
X16310601Y-13838174D02*
X16291553Y-13828650D01*
X16291553Y-13828650D02*
X16262982Y-13828650D01*
X16262982Y-13828650D02*
X16243934Y-13838174D01*
X16243934Y-13838174D02*
X16234410Y-13847698D01*
X16443934Y-13961984D02*
X16424887Y-13952460D01*
X16424887Y-13952460D02*
X16415363Y-13942936D01*
X16415363Y-13942936D02*
X16405839Y-13923888D01*
X16405839Y-13923888D02*
X16405839Y-13866746D01*
X16405839Y-13866746D02*
X16415363Y-13847698D01*
X16415363Y-13847698D02*
X16424887Y-13838174D01*
X16424887Y-13838174D02*
X16443934Y-13828650D01*
X16443934Y-13828650D02*
X16472506Y-13828650D01*
X16472506Y-13828650D02*
X16491553Y-13838174D01*
X16491553Y-13838174D02*
X16501077Y-13847698D01*
X16501077Y-13847698D02*
X16510601Y-13866746D01*
X16510601Y-13866746D02*
X16510601Y-13923888D01*
X16510601Y-13923888D02*
X16501077Y-13942936D01*
X16501077Y-13942936D02*
X16491553Y-13952460D01*
X16491553Y-13952460D02*
X16472506Y-13961984D01*
X16472506Y-13961984D02*
X16443934Y-13961984D01*
X16624887Y-13961984D02*
X16605839Y-13952460D01*
X16605839Y-13952460D02*
X16596315Y-13933412D01*
X16596315Y-13933412D02*
X16596315Y-13761984D01*
X16777268Y-13952460D02*
X16758220Y-13961984D01*
X16758220Y-13961984D02*
X16720125Y-13961984D01*
X16720125Y-13961984D02*
X16701077Y-13952460D01*
X16701077Y-13952460D02*
X16691553Y-13933412D01*
X16691553Y-13933412D02*
X16691553Y-13857222D01*
X16691553Y-13857222D02*
X16701077Y-13838174D01*
X16701077Y-13838174D02*
X16720125Y-13828650D01*
X16720125Y-13828650D02*
X16758220Y-13828650D01*
X16758220Y-13828650D02*
X16777268Y-13838174D01*
X16777268Y-13838174D02*
X16786792Y-13857222D01*
X16786792Y-13857222D02*
X16786792Y-13876269D01*
X16786792Y-13876269D02*
X16691553Y-13895317D01*
X16862982Y-13952460D02*
X16882030Y-13961984D01*
X16882030Y-13961984D02*
X16920125Y-13961984D01*
X16920125Y-13961984D02*
X16939173Y-13952460D01*
X16939173Y-13952460D02*
X16948696Y-13933412D01*
X16948696Y-13933412D02*
X16948696Y-13923888D01*
X16948696Y-13923888D02*
X16939173Y-13904841D01*
X16939173Y-13904841D02*
X16920125Y-13895317D01*
X16920125Y-13895317D02*
X16891553Y-13895317D01*
X16891553Y-13895317D02*
X16872506Y-13885793D01*
X16872506Y-13885793D02*
X16862982Y-13866746D01*
X16862982Y-13866746D02*
X16862982Y-13857222D01*
X16862982Y-13857222D02*
X16872506Y-13838174D01*
X16872506Y-13838174D02*
X16891553Y-13828650D01*
X16891553Y-13828650D02*
X16920125Y-13828650D01*
X16920125Y-13828650D02*
X16939173Y-13838174D01*
X17186792Y-13885793D02*
X17339173Y-13885793D01*
X17262982Y-13961984D02*
X17262982Y-13809603D01*
X17577268Y-13781031D02*
X17586792Y-13771508D01*
X17586792Y-13771508D02*
X17605839Y-13761984D01*
X17605839Y-13761984D02*
X17653458Y-13761984D01*
X17653458Y-13761984D02*
X17672506Y-13771508D01*
X17672506Y-13771508D02*
X17682030Y-13781031D01*
X17682030Y-13781031D02*
X17691554Y-13800079D01*
X17691554Y-13800079D02*
X17691554Y-13819127D01*
X17691554Y-13819127D02*
X17682030Y-13847698D01*
X17682030Y-13847698D02*
X17567744Y-13961984D01*
X17567744Y-13961984D02*
X17691554Y-13961984D01*
X17920125Y-13952460D02*
X17939173Y-13961984D01*
X17939173Y-13961984D02*
X17977268Y-13961984D01*
X17977268Y-13961984D02*
X17996316Y-13952460D01*
X17996316Y-13952460D02*
X18005839Y-13933412D01*
X18005839Y-13933412D02*
X18005839Y-13923888D01*
X18005839Y-13923888D02*
X17996316Y-13904841D01*
X17996316Y-13904841D02*
X17977268Y-13895317D01*
X17977268Y-13895317D02*
X17948696Y-13895317D01*
X17948696Y-13895317D02*
X17929649Y-13885793D01*
X17929649Y-13885793D02*
X17920125Y-13866746D01*
X17920125Y-13866746D02*
X17920125Y-13857222D01*
X17920125Y-13857222D02*
X17929649Y-13838174D01*
X17929649Y-13838174D02*
X17948696Y-13828650D01*
X17948696Y-13828650D02*
X17977268Y-13828650D01*
X17977268Y-13828650D02*
X17996316Y-13838174D01*
X18120125Y-13961984D02*
X18101077Y-13952460D01*
X18101077Y-13952460D02*
X18091554Y-13933412D01*
X18091554Y-13933412D02*
X18091554Y-13761984D01*
X18224887Y-13961984D02*
X18205839Y-13952460D01*
X18205839Y-13952460D02*
X18196316Y-13942936D01*
X18196316Y-13942936D02*
X18186792Y-13923888D01*
X18186792Y-13923888D02*
X18186792Y-13866746D01*
X18186792Y-13866746D02*
X18196316Y-13847698D01*
X18196316Y-13847698D02*
X18205839Y-13838174D01*
X18205839Y-13838174D02*
X18224887Y-13828650D01*
X18224887Y-13828650D02*
X18253458Y-13828650D01*
X18253458Y-13828650D02*
X18272506Y-13838174D01*
X18272506Y-13838174D02*
X18282030Y-13847698D01*
X18282030Y-13847698D02*
X18291554Y-13866746D01*
X18291554Y-13866746D02*
X18291554Y-13923888D01*
X18291554Y-13923888D02*
X18282030Y-13942936D01*
X18282030Y-13942936D02*
X18272506Y-13952460D01*
X18272506Y-13952460D02*
X18253458Y-13961984D01*
X18253458Y-13961984D02*
X18224887Y-13961984D01*
X18348697Y-13828650D02*
X18424887Y-13828650D01*
X18377268Y-13761984D02*
X18377268Y-13933412D01*
X18377268Y-13933412D02*
X18386792Y-13952460D01*
X18386792Y-13952460D02*
X18405839Y-13961984D01*
X18405839Y-13961984D02*
X18424887Y-13961984D01*
X18482030Y-13952460D02*
X18501077Y-13961984D01*
X18501077Y-13961984D02*
X18539173Y-13961984D01*
X18539173Y-13961984D02*
X18558220Y-13952460D01*
X18558220Y-13952460D02*
X18567744Y-13933412D01*
X18567744Y-13933412D02*
X18567744Y-13923888D01*
X18567744Y-13923888D02*
X18558220Y-13904841D01*
X18558220Y-13904841D02*
X18539173Y-13895317D01*
X18539173Y-13895317D02*
X18510601Y-13895317D01*
X18510601Y-13895317D02*
X18491554Y-13885793D01*
X18491554Y-13885793D02*
X18482030Y-13866746D01*
X18482030Y-13866746D02*
X18482030Y-13857222D01*
X18482030Y-13857222D02*
X18491554Y-13838174D01*
X18491554Y-13838174D02*
X18510601Y-13828650D01*
X18510601Y-13828650D02*
X18539173Y-13828650D01*
X18539173Y-13828650D02*
X18558220Y-13838174D01*
X18634411Y-14038174D02*
X18643935Y-14028650D01*
X18643935Y-14028650D02*
X18662982Y-14000079D01*
X18662982Y-14000079D02*
X18672506Y-13981031D01*
X18672506Y-13981031D02*
X18682030Y-13952460D01*
X18682030Y-13952460D02*
X18691554Y-13904841D01*
X18691554Y-13904841D02*
X18691554Y-13866746D01*
X18691554Y-13866746D02*
X18682030Y-13819127D01*
X18682030Y-13819127D02*
X18672506Y-13790555D01*
X18672506Y-13790555D02*
X18662982Y-13771508D01*
X18662982Y-13771508D02*
X18643935Y-13742936D01*
X18643935Y-13742936D02*
X18634411Y-13733412D01*
D12*
X12227120Y-14166320D02*
X12227120Y-14102680D01*
X12163480Y-14102680D01*
X12163480Y-14166320D01*
X12227120Y-14166320D01*
D11*
X12539172Y-14025984D02*
X12558220Y-14025984D01*
X12558220Y-14025984D02*
X12577267Y-14035508D01*
X12577267Y-14035508D02*
X12586791Y-14045031D01*
X12586791Y-14045031D02*
X12596315Y-14064079D01*
X12596315Y-14064079D02*
X12605839Y-14102174D01*
X12605839Y-14102174D02*
X12605839Y-14149793D01*
X12605839Y-14149793D02*
X12596315Y-14187888D01*
X12596315Y-14187888D02*
X12586791Y-14206936D01*
X12586791Y-14206936D02*
X12577267Y-14216460D01*
X12577267Y-14216460D02*
X12558220Y-14225984D01*
X12558220Y-14225984D02*
X12539172Y-14225984D01*
X12539172Y-14225984D02*
X12520124Y-14216460D01*
X12520124Y-14216460D02*
X12510601Y-14206936D01*
X12510601Y-14206936D02*
X12501077Y-14187888D01*
X12501077Y-14187888D02*
X12491553Y-14149793D01*
X12491553Y-14149793D02*
X12491553Y-14102174D01*
X12491553Y-14102174D02*
X12501077Y-14064079D01*
X12501077Y-14064079D02*
X12510601Y-14045031D01*
X12510601Y-14045031D02*
X12520124Y-14035508D01*
X12520124Y-14035508D02*
X12539172Y-14025984D01*
X12691553Y-14206936D02*
X12701077Y-14216460D01*
X12701077Y-14216460D02*
X12691553Y-14225984D01*
X12691553Y-14225984D02*
X12682029Y-14216460D01*
X12682029Y-14216460D02*
X12691553Y-14206936D01*
X12691553Y-14206936D02*
X12691553Y-14225984D01*
X12796315Y-14225984D02*
X12834410Y-14225984D01*
X12834410Y-14225984D02*
X12853458Y-14216460D01*
X12853458Y-14216460D02*
X12862982Y-14206936D01*
X12862982Y-14206936D02*
X12882029Y-14178365D01*
X12882029Y-14178365D02*
X12891553Y-14140269D01*
X12891553Y-14140269D02*
X12891553Y-14064079D01*
X12891553Y-14064079D02*
X12882029Y-14045031D01*
X12882029Y-14045031D02*
X12872505Y-14035508D01*
X12872505Y-14035508D02*
X12853458Y-14025984D01*
X12853458Y-14025984D02*
X12815362Y-14025984D01*
X12815362Y-14025984D02*
X12796315Y-14035508D01*
X12796315Y-14035508D02*
X12786791Y-14045031D01*
X12786791Y-14045031D02*
X12777267Y-14064079D01*
X12777267Y-14064079D02*
X12777267Y-14111698D01*
X12777267Y-14111698D02*
X12786791Y-14130746D01*
X12786791Y-14130746D02*
X12796315Y-14140269D01*
X12796315Y-14140269D02*
X12815362Y-14149793D01*
X12815362Y-14149793D02*
X12853458Y-14149793D01*
X12853458Y-14149793D02*
X12872505Y-14140269D01*
X12872505Y-14140269D02*
X12882029Y-14130746D01*
X12882029Y-14130746D02*
X12891553Y-14111698D01*
X13015362Y-14025984D02*
X13034410Y-14025984D01*
X13034410Y-14025984D02*
X13053458Y-14035508D01*
X13053458Y-14035508D02*
X13062982Y-14045031D01*
X13062982Y-14045031D02*
X13072505Y-14064079D01*
X13072505Y-14064079D02*
X13082029Y-14102174D01*
X13082029Y-14102174D02*
X13082029Y-14149793D01*
X13082029Y-14149793D02*
X13072505Y-14187888D01*
X13072505Y-14187888D02*
X13062982Y-14206936D01*
X13062982Y-14206936D02*
X13053458Y-14216460D01*
X13053458Y-14216460D02*
X13034410Y-14225984D01*
X13034410Y-14225984D02*
X13015362Y-14225984D01*
X13015362Y-14225984D02*
X12996315Y-14216460D01*
X12996315Y-14216460D02*
X12986791Y-14206936D01*
X12986791Y-14206936D02*
X12977267Y-14187888D01*
X12977267Y-14187888D02*
X12967743Y-14149793D01*
X12967743Y-14149793D02*
X12967743Y-14102174D01*
X12967743Y-14102174D02*
X12977267Y-14064079D01*
X12977267Y-14064079D02*
X12986791Y-14045031D01*
X12986791Y-14045031D02*
X12996315Y-14035508D01*
X12996315Y-14035508D02*
X13015362Y-14025984D01*
X13205839Y-14025984D02*
X13224886Y-14025984D01*
X13224886Y-14025984D02*
X13243934Y-14035508D01*
X13243934Y-14035508D02*
X13253458Y-14045031D01*
X13253458Y-14045031D02*
X13262982Y-14064079D01*
X13262982Y-14064079D02*
X13272505Y-14102174D01*
X13272505Y-14102174D02*
X13272505Y-14149793D01*
X13272505Y-14149793D02*
X13262982Y-14187888D01*
X13262982Y-14187888D02*
X13253458Y-14206936D01*
X13253458Y-14206936D02*
X13243934Y-14216460D01*
X13243934Y-14216460D02*
X13224886Y-14225984D01*
X13224886Y-14225984D02*
X13205839Y-14225984D01*
X13205839Y-14225984D02*
X13186791Y-14216460D01*
X13186791Y-14216460D02*
X13177267Y-14206936D01*
X13177267Y-14206936D02*
X13167743Y-14187888D01*
X13167743Y-14187888D02*
X13158220Y-14149793D01*
X13158220Y-14149793D02*
X13158220Y-14102174D01*
X13158220Y-14102174D02*
X13167743Y-14064079D01*
X13167743Y-14064079D02*
X13177267Y-14045031D01*
X13177267Y-14045031D02*
X13186791Y-14035508D01*
X13186791Y-14035508D02*
X13205839Y-14025984D01*
X13358220Y-14225984D02*
X13358220Y-14092650D01*
X13358220Y-14111698D02*
X13367743Y-14102174D01*
X13367743Y-14102174D02*
X13386791Y-14092650D01*
X13386791Y-14092650D02*
X13415363Y-14092650D01*
X13415363Y-14092650D02*
X13434410Y-14102174D01*
X13434410Y-14102174D02*
X13443934Y-14121222D01*
X13443934Y-14121222D02*
X13443934Y-14225984D01*
X13443934Y-14121222D02*
X13453458Y-14102174D01*
X13453458Y-14102174D02*
X13472505Y-14092650D01*
X13472505Y-14092650D02*
X13501077Y-14092650D01*
X13501077Y-14092650D02*
X13520124Y-14102174D01*
X13520124Y-14102174D02*
X13529648Y-14121222D01*
X13529648Y-14121222D02*
X13529648Y-14225984D01*
X13624886Y-14225984D02*
X13624886Y-14092650D01*
X13624886Y-14111698D02*
X13634410Y-14102174D01*
X13634410Y-14102174D02*
X13653458Y-14092650D01*
X13653458Y-14092650D02*
X13682029Y-14092650D01*
X13682029Y-14092650D02*
X13701077Y-14102174D01*
X13701077Y-14102174D02*
X13710601Y-14121222D01*
X13710601Y-14121222D02*
X13710601Y-14225984D01*
X13710601Y-14121222D02*
X13720124Y-14102174D01*
X13720124Y-14102174D02*
X13739172Y-14092650D01*
X13739172Y-14092650D02*
X13767743Y-14092650D01*
X13767743Y-14092650D02*
X13786791Y-14102174D01*
X13786791Y-14102174D02*
X13796315Y-14121222D01*
X13796315Y-14121222D02*
X13796315Y-14225984D01*
X14186791Y-14016460D02*
X14015363Y-14273603D01*
X14443934Y-14025984D02*
X14462982Y-14025984D01*
X14462982Y-14025984D02*
X14482029Y-14035508D01*
X14482029Y-14035508D02*
X14491553Y-14045031D01*
X14491553Y-14045031D02*
X14501077Y-14064079D01*
X14501077Y-14064079D02*
X14510601Y-14102174D01*
X14510601Y-14102174D02*
X14510601Y-14149793D01*
X14510601Y-14149793D02*
X14501077Y-14187888D01*
X14501077Y-14187888D02*
X14491553Y-14206936D01*
X14491553Y-14206936D02*
X14482029Y-14216460D01*
X14482029Y-14216460D02*
X14462982Y-14225984D01*
X14462982Y-14225984D02*
X14443934Y-14225984D01*
X14443934Y-14225984D02*
X14424886Y-14216460D01*
X14424886Y-14216460D02*
X14415363Y-14206936D01*
X14415363Y-14206936D02*
X14405839Y-14187888D01*
X14405839Y-14187888D02*
X14396315Y-14149793D01*
X14396315Y-14149793D02*
X14396315Y-14102174D01*
X14396315Y-14102174D02*
X14405839Y-14064079D01*
X14405839Y-14064079D02*
X14415363Y-14045031D01*
X14415363Y-14045031D02*
X14424886Y-14035508D01*
X14424886Y-14035508D02*
X14443934Y-14025984D01*
X14596315Y-14206936D02*
X14605839Y-14216460D01*
X14605839Y-14216460D02*
X14596315Y-14225984D01*
X14596315Y-14225984D02*
X14586791Y-14216460D01*
X14586791Y-14216460D02*
X14596315Y-14206936D01*
X14596315Y-14206936D02*
X14596315Y-14225984D01*
X14729648Y-14025984D02*
X14748696Y-14025984D01*
X14748696Y-14025984D02*
X14767744Y-14035508D01*
X14767744Y-14035508D02*
X14777267Y-14045031D01*
X14777267Y-14045031D02*
X14786791Y-14064079D01*
X14786791Y-14064079D02*
X14796315Y-14102174D01*
X14796315Y-14102174D02*
X14796315Y-14149793D01*
X14796315Y-14149793D02*
X14786791Y-14187888D01*
X14786791Y-14187888D02*
X14777267Y-14206936D01*
X14777267Y-14206936D02*
X14767744Y-14216460D01*
X14767744Y-14216460D02*
X14748696Y-14225984D01*
X14748696Y-14225984D02*
X14729648Y-14225984D01*
X14729648Y-14225984D02*
X14710601Y-14216460D01*
X14710601Y-14216460D02*
X14701077Y-14206936D01*
X14701077Y-14206936D02*
X14691553Y-14187888D01*
X14691553Y-14187888D02*
X14682029Y-14149793D01*
X14682029Y-14149793D02*
X14682029Y-14102174D01*
X14682029Y-14102174D02*
X14691553Y-14064079D01*
X14691553Y-14064079D02*
X14701077Y-14045031D01*
X14701077Y-14045031D02*
X14710601Y-14035508D01*
X14710601Y-14035508D02*
X14729648Y-14025984D01*
X14862982Y-14025984D02*
X14986791Y-14025984D01*
X14986791Y-14025984D02*
X14920125Y-14102174D01*
X14920125Y-14102174D02*
X14948696Y-14102174D01*
X14948696Y-14102174D02*
X14967744Y-14111698D01*
X14967744Y-14111698D02*
X14977267Y-14121222D01*
X14977267Y-14121222D02*
X14986791Y-14140269D01*
X14986791Y-14140269D02*
X14986791Y-14187888D01*
X14986791Y-14187888D02*
X14977267Y-14206936D01*
X14977267Y-14206936D02*
X14967744Y-14216460D01*
X14967744Y-14216460D02*
X14948696Y-14225984D01*
X14948696Y-14225984D02*
X14891553Y-14225984D01*
X14891553Y-14225984D02*
X14872506Y-14216460D01*
X14872506Y-14216460D02*
X14862982Y-14206936D01*
X15167744Y-14025984D02*
X15072506Y-14025984D01*
X15072506Y-14025984D02*
X15062982Y-14121222D01*
X15062982Y-14121222D02*
X15072506Y-14111698D01*
X15072506Y-14111698D02*
X15091553Y-14102174D01*
X15091553Y-14102174D02*
X15139172Y-14102174D01*
X15139172Y-14102174D02*
X15158220Y-14111698D01*
X15158220Y-14111698D02*
X15167744Y-14121222D01*
X15167744Y-14121222D02*
X15177267Y-14140269D01*
X15177267Y-14140269D02*
X15177267Y-14187888D01*
X15177267Y-14187888D02*
X15167744Y-14206936D01*
X15167744Y-14206936D02*
X15158220Y-14216460D01*
X15158220Y-14216460D02*
X15139172Y-14225984D01*
X15139172Y-14225984D02*
X15091553Y-14225984D01*
X15091553Y-14225984D02*
X15072506Y-14216460D01*
X15072506Y-14216460D02*
X15062982Y-14206936D01*
X15348696Y-14092650D02*
X15348696Y-14225984D01*
X15301077Y-14016460D02*
X15253458Y-14159317D01*
X15253458Y-14159317D02*
X15377267Y-14159317D01*
X15443934Y-14025984D02*
X15443934Y-14064079D01*
X15520125Y-14025984D02*
X15520125Y-14064079D01*
X15815363Y-14302174D02*
X15805839Y-14292650D01*
X15805839Y-14292650D02*
X15786791Y-14264079D01*
X15786791Y-14264079D02*
X15777268Y-14245031D01*
X15777268Y-14245031D02*
X15767744Y-14216460D01*
X15767744Y-14216460D02*
X15758220Y-14168841D01*
X15758220Y-14168841D02*
X15758220Y-14130746D01*
X15758220Y-14130746D02*
X15767744Y-14083127D01*
X15767744Y-14083127D02*
X15777268Y-14054555D01*
X15777268Y-14054555D02*
X15786791Y-14035508D01*
X15786791Y-14035508D02*
X15805839Y-14006936D01*
X15805839Y-14006936D02*
X15815363Y-13997412D01*
X15977268Y-14092650D02*
X15977268Y-14225984D01*
X15929648Y-14016460D02*
X15882029Y-14159317D01*
X15882029Y-14159317D02*
X16005839Y-14159317D01*
X16234410Y-14225984D02*
X16234410Y-14025984D01*
X16320125Y-14225984D02*
X16320125Y-14121222D01*
X16320125Y-14121222D02*
X16310601Y-14102174D01*
X16310601Y-14102174D02*
X16291553Y-14092650D01*
X16291553Y-14092650D02*
X16262982Y-14092650D01*
X16262982Y-14092650D02*
X16243934Y-14102174D01*
X16243934Y-14102174D02*
X16234410Y-14111698D01*
X16443934Y-14225984D02*
X16424887Y-14216460D01*
X16424887Y-14216460D02*
X16415363Y-14206936D01*
X16415363Y-14206936D02*
X16405839Y-14187888D01*
X16405839Y-14187888D02*
X16405839Y-14130746D01*
X16405839Y-14130746D02*
X16415363Y-14111698D01*
X16415363Y-14111698D02*
X16424887Y-14102174D01*
X16424887Y-14102174D02*
X16443934Y-14092650D01*
X16443934Y-14092650D02*
X16472506Y-14092650D01*
X16472506Y-14092650D02*
X16491553Y-14102174D01*
X16491553Y-14102174D02*
X16501077Y-14111698D01*
X16501077Y-14111698D02*
X16510601Y-14130746D01*
X16510601Y-14130746D02*
X16510601Y-14187888D01*
X16510601Y-14187888D02*
X16501077Y-14206936D01*
X16501077Y-14206936D02*
X16491553Y-14216460D01*
X16491553Y-14216460D02*
X16472506Y-14225984D01*
X16472506Y-14225984D02*
X16443934Y-14225984D01*
X16624887Y-14225984D02*
X16605839Y-14216460D01*
X16605839Y-14216460D02*
X16596315Y-14197412D01*
X16596315Y-14197412D02*
X16596315Y-14025984D01*
X16777268Y-14216460D02*
X16758220Y-14225984D01*
X16758220Y-14225984D02*
X16720125Y-14225984D01*
X16720125Y-14225984D02*
X16701077Y-14216460D01*
X16701077Y-14216460D02*
X16691553Y-14197412D01*
X16691553Y-14197412D02*
X16691553Y-14121222D01*
X16691553Y-14121222D02*
X16701077Y-14102174D01*
X16701077Y-14102174D02*
X16720125Y-14092650D01*
X16720125Y-14092650D02*
X16758220Y-14092650D01*
X16758220Y-14092650D02*
X16777268Y-14102174D01*
X16777268Y-14102174D02*
X16786792Y-14121222D01*
X16786792Y-14121222D02*
X16786792Y-14140269D01*
X16786792Y-14140269D02*
X16691553Y-14159317D01*
X16862982Y-14216460D02*
X16882030Y-14225984D01*
X16882030Y-14225984D02*
X16920125Y-14225984D01*
X16920125Y-14225984D02*
X16939173Y-14216460D01*
X16939173Y-14216460D02*
X16948696Y-14197412D01*
X16948696Y-14197412D02*
X16948696Y-14187888D01*
X16948696Y-14187888D02*
X16939173Y-14168841D01*
X16939173Y-14168841D02*
X16920125Y-14159317D01*
X16920125Y-14159317D02*
X16891553Y-14159317D01*
X16891553Y-14159317D02*
X16872506Y-14149793D01*
X16872506Y-14149793D02*
X16862982Y-14130746D01*
X16862982Y-14130746D02*
X16862982Y-14121222D01*
X16862982Y-14121222D02*
X16872506Y-14102174D01*
X16872506Y-14102174D02*
X16891553Y-14092650D01*
X16891553Y-14092650D02*
X16920125Y-14092650D01*
X16920125Y-14092650D02*
X16939173Y-14102174D01*
X17015363Y-14302174D02*
X17024887Y-14292650D01*
X17024887Y-14292650D02*
X17043934Y-14264079D01*
X17043934Y-14264079D02*
X17053458Y-14245031D01*
X17053458Y-14245031D02*
X17062982Y-14216460D01*
X17062982Y-14216460D02*
X17072506Y-14168841D01*
X17072506Y-14168841D02*
X17072506Y-14130746D01*
X17072506Y-14130746D02*
X17062982Y-14083127D01*
X17062982Y-14083127D02*
X17053458Y-14054555D01*
X17053458Y-14054555D02*
X17043934Y-14035508D01*
X17043934Y-14035508D02*
X17024887Y-14006936D01*
X17024887Y-14006936D02*
X17015363Y-13997412D01*
D12*
X12190300Y-14448500D02*
X12240300Y-14398500D01*
X12190300Y-14348500D01*
X12140300Y-14398500D01*
X12190300Y-14448500D01*
D11*
X12605839Y-14489984D02*
X12491553Y-14489984D01*
X12548696Y-14489984D02*
X12548696Y-14289984D01*
X12548696Y-14289984D02*
X12529648Y-14318555D01*
X12529648Y-14318555D02*
X12510601Y-14337603D01*
X12510601Y-14337603D02*
X12491553Y-14347127D01*
X12691553Y-14470936D02*
X12701077Y-14480460D01*
X12701077Y-14480460D02*
X12691553Y-14489984D01*
X12691553Y-14489984D02*
X12682029Y-14480460D01*
X12682029Y-14480460D02*
X12691553Y-14470936D01*
X12691553Y-14470936D02*
X12691553Y-14489984D01*
X12824886Y-14289984D02*
X12843934Y-14289984D01*
X12843934Y-14289984D02*
X12862982Y-14299508D01*
X12862982Y-14299508D02*
X12872505Y-14309031D01*
X12872505Y-14309031D02*
X12882029Y-14328079D01*
X12882029Y-14328079D02*
X12891553Y-14366174D01*
X12891553Y-14366174D02*
X12891553Y-14413793D01*
X12891553Y-14413793D02*
X12882029Y-14451888D01*
X12882029Y-14451888D02*
X12872505Y-14470936D01*
X12872505Y-14470936D02*
X12862982Y-14480460D01*
X12862982Y-14480460D02*
X12843934Y-14489984D01*
X12843934Y-14489984D02*
X12824886Y-14489984D01*
X12824886Y-14489984D02*
X12805839Y-14480460D01*
X12805839Y-14480460D02*
X12796315Y-14470936D01*
X12796315Y-14470936D02*
X12786791Y-14451888D01*
X12786791Y-14451888D02*
X12777267Y-14413793D01*
X12777267Y-14413793D02*
X12777267Y-14366174D01*
X12777267Y-14366174D02*
X12786791Y-14328079D01*
X12786791Y-14328079D02*
X12796315Y-14309031D01*
X12796315Y-14309031D02*
X12805839Y-14299508D01*
X12805839Y-14299508D02*
X12824886Y-14289984D01*
X13015362Y-14289984D02*
X13034410Y-14289984D01*
X13034410Y-14289984D02*
X13053458Y-14299508D01*
X13053458Y-14299508D02*
X13062982Y-14309031D01*
X13062982Y-14309031D02*
X13072505Y-14328079D01*
X13072505Y-14328079D02*
X13082029Y-14366174D01*
X13082029Y-14366174D02*
X13082029Y-14413793D01*
X13082029Y-14413793D02*
X13072505Y-14451888D01*
X13072505Y-14451888D02*
X13062982Y-14470936D01*
X13062982Y-14470936D02*
X13053458Y-14480460D01*
X13053458Y-14480460D02*
X13034410Y-14489984D01*
X13034410Y-14489984D02*
X13015362Y-14489984D01*
X13015362Y-14489984D02*
X12996315Y-14480460D01*
X12996315Y-14480460D02*
X12986791Y-14470936D01*
X12986791Y-14470936D02*
X12977267Y-14451888D01*
X12977267Y-14451888D02*
X12967743Y-14413793D01*
X12967743Y-14413793D02*
X12967743Y-14366174D01*
X12967743Y-14366174D02*
X12977267Y-14328079D01*
X12977267Y-14328079D02*
X12986791Y-14309031D01*
X12986791Y-14309031D02*
X12996315Y-14299508D01*
X12996315Y-14299508D02*
X13015362Y-14289984D01*
X13205839Y-14289984D02*
X13224886Y-14289984D01*
X13224886Y-14289984D02*
X13243934Y-14299508D01*
X13243934Y-14299508D02*
X13253458Y-14309031D01*
X13253458Y-14309031D02*
X13262982Y-14328079D01*
X13262982Y-14328079D02*
X13272505Y-14366174D01*
X13272505Y-14366174D02*
X13272505Y-14413793D01*
X13272505Y-14413793D02*
X13262982Y-14451888D01*
X13262982Y-14451888D02*
X13253458Y-14470936D01*
X13253458Y-14470936D02*
X13243934Y-14480460D01*
X13243934Y-14480460D02*
X13224886Y-14489984D01*
X13224886Y-14489984D02*
X13205839Y-14489984D01*
X13205839Y-14489984D02*
X13186791Y-14480460D01*
X13186791Y-14480460D02*
X13177267Y-14470936D01*
X13177267Y-14470936D02*
X13167743Y-14451888D01*
X13167743Y-14451888D02*
X13158220Y-14413793D01*
X13158220Y-14413793D02*
X13158220Y-14366174D01*
X13158220Y-14366174D02*
X13167743Y-14328079D01*
X13167743Y-14328079D02*
X13177267Y-14309031D01*
X13177267Y-14309031D02*
X13186791Y-14299508D01*
X13186791Y-14299508D02*
X13205839Y-14289984D01*
X13358220Y-14489984D02*
X13358220Y-14356650D01*
X13358220Y-14375698D02*
X13367743Y-14366174D01*
X13367743Y-14366174D02*
X13386791Y-14356650D01*
X13386791Y-14356650D02*
X13415363Y-14356650D01*
X13415363Y-14356650D02*
X13434410Y-14366174D01*
X13434410Y-14366174D02*
X13443934Y-14385222D01*
X13443934Y-14385222D02*
X13443934Y-14489984D01*
X13443934Y-14385222D02*
X13453458Y-14366174D01*
X13453458Y-14366174D02*
X13472505Y-14356650D01*
X13472505Y-14356650D02*
X13501077Y-14356650D01*
X13501077Y-14356650D02*
X13520124Y-14366174D01*
X13520124Y-14366174D02*
X13529648Y-14385222D01*
X13529648Y-14385222D02*
X13529648Y-14489984D01*
X13624886Y-14489984D02*
X13624886Y-14356650D01*
X13624886Y-14375698D02*
X13634410Y-14366174D01*
X13634410Y-14366174D02*
X13653458Y-14356650D01*
X13653458Y-14356650D02*
X13682029Y-14356650D01*
X13682029Y-14356650D02*
X13701077Y-14366174D01*
X13701077Y-14366174D02*
X13710601Y-14385222D01*
X13710601Y-14385222D02*
X13710601Y-14489984D01*
X13710601Y-14385222D02*
X13720124Y-14366174D01*
X13720124Y-14366174D02*
X13739172Y-14356650D01*
X13739172Y-14356650D02*
X13767743Y-14356650D01*
X13767743Y-14356650D02*
X13786791Y-14366174D01*
X13786791Y-14366174D02*
X13796315Y-14385222D01*
X13796315Y-14385222D02*
X13796315Y-14489984D01*
X14186791Y-14280460D02*
X14015363Y-14537603D01*
X14443934Y-14289984D02*
X14462982Y-14289984D01*
X14462982Y-14289984D02*
X14482029Y-14299508D01*
X14482029Y-14299508D02*
X14491553Y-14309031D01*
X14491553Y-14309031D02*
X14501077Y-14328079D01*
X14501077Y-14328079D02*
X14510601Y-14366174D01*
X14510601Y-14366174D02*
X14510601Y-14413793D01*
X14510601Y-14413793D02*
X14501077Y-14451888D01*
X14501077Y-14451888D02*
X14491553Y-14470936D01*
X14491553Y-14470936D02*
X14482029Y-14480460D01*
X14482029Y-14480460D02*
X14462982Y-14489984D01*
X14462982Y-14489984D02*
X14443934Y-14489984D01*
X14443934Y-14489984D02*
X14424886Y-14480460D01*
X14424886Y-14480460D02*
X14415363Y-14470936D01*
X14415363Y-14470936D02*
X14405839Y-14451888D01*
X14405839Y-14451888D02*
X14396315Y-14413793D01*
X14396315Y-14413793D02*
X14396315Y-14366174D01*
X14396315Y-14366174D02*
X14405839Y-14328079D01*
X14405839Y-14328079D02*
X14415363Y-14309031D01*
X14415363Y-14309031D02*
X14424886Y-14299508D01*
X14424886Y-14299508D02*
X14443934Y-14289984D01*
X14596315Y-14470936D02*
X14605839Y-14480460D01*
X14605839Y-14480460D02*
X14596315Y-14489984D01*
X14596315Y-14489984D02*
X14586791Y-14480460D01*
X14586791Y-14480460D02*
X14596315Y-14470936D01*
X14596315Y-14470936D02*
X14596315Y-14489984D01*
X14729648Y-14289984D02*
X14748696Y-14289984D01*
X14748696Y-14289984D02*
X14767744Y-14299508D01*
X14767744Y-14299508D02*
X14777267Y-14309031D01*
X14777267Y-14309031D02*
X14786791Y-14328079D01*
X14786791Y-14328079D02*
X14796315Y-14366174D01*
X14796315Y-14366174D02*
X14796315Y-14413793D01*
X14796315Y-14413793D02*
X14786791Y-14451888D01*
X14786791Y-14451888D02*
X14777267Y-14470936D01*
X14777267Y-14470936D02*
X14767744Y-14480460D01*
X14767744Y-14480460D02*
X14748696Y-14489984D01*
X14748696Y-14489984D02*
X14729648Y-14489984D01*
X14729648Y-14489984D02*
X14710601Y-14480460D01*
X14710601Y-14480460D02*
X14701077Y-14470936D01*
X14701077Y-14470936D02*
X14691553Y-14451888D01*
X14691553Y-14451888D02*
X14682029Y-14413793D01*
X14682029Y-14413793D02*
X14682029Y-14366174D01*
X14682029Y-14366174D02*
X14691553Y-14328079D01*
X14691553Y-14328079D02*
X14701077Y-14309031D01*
X14701077Y-14309031D02*
X14710601Y-14299508D01*
X14710601Y-14299508D02*
X14729648Y-14289984D01*
X14862982Y-14289984D02*
X14986791Y-14289984D01*
X14986791Y-14289984D02*
X14920125Y-14366174D01*
X14920125Y-14366174D02*
X14948696Y-14366174D01*
X14948696Y-14366174D02*
X14967744Y-14375698D01*
X14967744Y-14375698D02*
X14977267Y-14385222D01*
X14977267Y-14385222D02*
X14986791Y-14404269D01*
X14986791Y-14404269D02*
X14986791Y-14451888D01*
X14986791Y-14451888D02*
X14977267Y-14470936D01*
X14977267Y-14470936D02*
X14967744Y-14480460D01*
X14967744Y-14480460D02*
X14948696Y-14489984D01*
X14948696Y-14489984D02*
X14891553Y-14489984D01*
X14891553Y-14489984D02*
X14872506Y-14480460D01*
X14872506Y-14480460D02*
X14862982Y-14470936D01*
X15082029Y-14489984D02*
X15120125Y-14489984D01*
X15120125Y-14489984D02*
X15139172Y-14480460D01*
X15139172Y-14480460D02*
X15148696Y-14470936D01*
X15148696Y-14470936D02*
X15167744Y-14442365D01*
X15167744Y-14442365D02*
X15177267Y-14404269D01*
X15177267Y-14404269D02*
X15177267Y-14328079D01*
X15177267Y-14328079D02*
X15167744Y-14309031D01*
X15167744Y-14309031D02*
X15158220Y-14299508D01*
X15158220Y-14299508D02*
X15139172Y-14289984D01*
X15139172Y-14289984D02*
X15101077Y-14289984D01*
X15101077Y-14289984D02*
X15082029Y-14299508D01*
X15082029Y-14299508D02*
X15072506Y-14309031D01*
X15072506Y-14309031D02*
X15062982Y-14328079D01*
X15062982Y-14328079D02*
X15062982Y-14375698D01*
X15062982Y-14375698D02*
X15072506Y-14394746D01*
X15072506Y-14394746D02*
X15082029Y-14404269D01*
X15082029Y-14404269D02*
X15101077Y-14413793D01*
X15101077Y-14413793D02*
X15139172Y-14413793D01*
X15139172Y-14413793D02*
X15158220Y-14404269D01*
X15158220Y-14404269D02*
X15167744Y-14394746D01*
X15167744Y-14394746D02*
X15177267Y-14375698D01*
X15348696Y-14356650D02*
X15348696Y-14489984D01*
X15301077Y-14280460D02*
X15253458Y-14423317D01*
X15253458Y-14423317D02*
X15377267Y-14423317D01*
X15443934Y-14289984D02*
X15443934Y-14328079D01*
X15520125Y-14289984D02*
X15520125Y-14328079D01*
X15815363Y-14566174D02*
X15805839Y-14556650D01*
X15805839Y-14556650D02*
X15786791Y-14528079D01*
X15786791Y-14528079D02*
X15777268Y-14509031D01*
X15777268Y-14509031D02*
X15767744Y-14480460D01*
X15767744Y-14480460D02*
X15758220Y-14432841D01*
X15758220Y-14432841D02*
X15758220Y-14394746D01*
X15758220Y-14394746D02*
X15767744Y-14347127D01*
X15767744Y-14347127D02*
X15777268Y-14318555D01*
X15777268Y-14318555D02*
X15786791Y-14299508D01*
X15786791Y-14299508D02*
X15805839Y-14270936D01*
X15805839Y-14270936D02*
X15815363Y-14261412D01*
X15996315Y-14489984D02*
X15882029Y-14489984D01*
X15939172Y-14489984D02*
X15939172Y-14289984D01*
X15939172Y-14289984D02*
X15920125Y-14318555D01*
X15920125Y-14318555D02*
X15901077Y-14337603D01*
X15901077Y-14337603D02*
X15882029Y-14347127D01*
X16224887Y-14480460D02*
X16243934Y-14489984D01*
X16243934Y-14489984D02*
X16282029Y-14489984D01*
X16282029Y-14489984D02*
X16301077Y-14480460D01*
X16301077Y-14480460D02*
X16310601Y-14461412D01*
X16310601Y-14461412D02*
X16310601Y-14451888D01*
X16310601Y-14451888D02*
X16301077Y-14432841D01*
X16301077Y-14432841D02*
X16282029Y-14423317D01*
X16282029Y-14423317D02*
X16253458Y-14423317D01*
X16253458Y-14423317D02*
X16234410Y-14413793D01*
X16234410Y-14413793D02*
X16224887Y-14394746D01*
X16224887Y-14394746D02*
X16224887Y-14385222D01*
X16224887Y-14385222D02*
X16234410Y-14366174D01*
X16234410Y-14366174D02*
X16253458Y-14356650D01*
X16253458Y-14356650D02*
X16282029Y-14356650D01*
X16282029Y-14356650D02*
X16301077Y-14366174D01*
X16424887Y-14489984D02*
X16405839Y-14480460D01*
X16405839Y-14480460D02*
X16396315Y-14461412D01*
X16396315Y-14461412D02*
X16396315Y-14289984D01*
X16529649Y-14489984D02*
X16510601Y-14480460D01*
X16510601Y-14480460D02*
X16501077Y-14470936D01*
X16501077Y-14470936D02*
X16491553Y-14451888D01*
X16491553Y-14451888D02*
X16491553Y-14394746D01*
X16491553Y-14394746D02*
X16501077Y-14375698D01*
X16501077Y-14375698D02*
X16510601Y-14366174D01*
X16510601Y-14366174D02*
X16529649Y-14356650D01*
X16529649Y-14356650D02*
X16558220Y-14356650D01*
X16558220Y-14356650D02*
X16577268Y-14366174D01*
X16577268Y-14366174D02*
X16586791Y-14375698D01*
X16586791Y-14375698D02*
X16596315Y-14394746D01*
X16596315Y-14394746D02*
X16596315Y-14451888D01*
X16596315Y-14451888D02*
X16586791Y-14470936D01*
X16586791Y-14470936D02*
X16577268Y-14480460D01*
X16577268Y-14480460D02*
X16558220Y-14489984D01*
X16558220Y-14489984D02*
X16529649Y-14489984D01*
X16653458Y-14356650D02*
X16729649Y-14356650D01*
X16682030Y-14289984D02*
X16682030Y-14461412D01*
X16682030Y-14461412D02*
X16691553Y-14480460D01*
X16691553Y-14480460D02*
X16710601Y-14489984D01*
X16710601Y-14489984D02*
X16729649Y-14489984D01*
X16777268Y-14566174D02*
X16786792Y-14556650D01*
X16786792Y-14556650D02*
X16805839Y-14528079D01*
X16805839Y-14528079D02*
X16815363Y-14509031D01*
X16815363Y-14509031D02*
X16824887Y-14480460D01*
X16824887Y-14480460D02*
X16834411Y-14432841D01*
X16834411Y-14432841D02*
X16834411Y-14394746D01*
X16834411Y-14394746D02*
X16824887Y-14347127D01*
X16824887Y-14347127D02*
X16815363Y-14318555D01*
X16815363Y-14318555D02*
X16805839Y-14299508D01*
X16805839Y-14299508D02*
X16786792Y-14270936D01*
X16786792Y-14270936D02*
X16777268Y-14261412D01*
D13*
X12138700Y-14611700D02*
X12240300Y-14713300D01*
X12240300Y-14611700D02*
X12138700Y-14713300D01*
X12240300Y-14662500D02*
G75*
G02*
X12138700Y-14662500I-50800J0D01*
G01*
X12138700Y-14662500D02*
G75*
G02*
X12240300Y-14662500I50800J0D01*
G01*
D11*
X12605839Y-14753984D02*
X12491553Y-14753984D01*
X12548696Y-14753984D02*
X12548696Y-14553984D01*
X12548696Y-14553984D02*
X12529648Y-14582555D01*
X12529648Y-14582555D02*
X12510601Y-14601603D01*
X12510601Y-14601603D02*
X12491553Y-14611127D01*
X12691553Y-14734936D02*
X12701077Y-14744460D01*
X12701077Y-14744460D02*
X12691553Y-14753984D01*
X12691553Y-14753984D02*
X12682029Y-14744460D01*
X12682029Y-14744460D02*
X12691553Y-14734936D01*
X12691553Y-14734936D02*
X12691553Y-14753984D01*
X12824886Y-14553984D02*
X12843934Y-14553984D01*
X12843934Y-14553984D02*
X12862982Y-14563508D01*
X12862982Y-14563508D02*
X12872505Y-14573031D01*
X12872505Y-14573031D02*
X12882029Y-14592079D01*
X12882029Y-14592079D02*
X12891553Y-14630174D01*
X12891553Y-14630174D02*
X12891553Y-14677793D01*
X12891553Y-14677793D02*
X12882029Y-14715888D01*
X12882029Y-14715888D02*
X12872505Y-14734936D01*
X12872505Y-14734936D02*
X12862982Y-14744460D01*
X12862982Y-14744460D02*
X12843934Y-14753984D01*
X12843934Y-14753984D02*
X12824886Y-14753984D01*
X12824886Y-14753984D02*
X12805839Y-14744460D01*
X12805839Y-14744460D02*
X12796315Y-14734936D01*
X12796315Y-14734936D02*
X12786791Y-14715888D01*
X12786791Y-14715888D02*
X12777267Y-14677793D01*
X12777267Y-14677793D02*
X12777267Y-14630174D01*
X12777267Y-14630174D02*
X12786791Y-14592079D01*
X12786791Y-14592079D02*
X12796315Y-14573031D01*
X12796315Y-14573031D02*
X12805839Y-14563508D01*
X12805839Y-14563508D02*
X12824886Y-14553984D01*
X13082029Y-14753984D02*
X12967743Y-14753984D01*
X13024886Y-14753984D02*
X13024886Y-14553984D01*
X13024886Y-14553984D02*
X13005839Y-14582555D01*
X13005839Y-14582555D02*
X12986791Y-14601603D01*
X12986791Y-14601603D02*
X12967743Y-14611127D01*
X13253458Y-14553984D02*
X13215362Y-14553984D01*
X13215362Y-14553984D02*
X13196315Y-14563508D01*
X13196315Y-14563508D02*
X13186791Y-14573031D01*
X13186791Y-14573031D02*
X13167743Y-14601603D01*
X13167743Y-14601603D02*
X13158220Y-14639698D01*
X13158220Y-14639698D02*
X13158220Y-14715888D01*
X13158220Y-14715888D02*
X13167743Y-14734936D01*
X13167743Y-14734936D02*
X13177267Y-14744460D01*
X13177267Y-14744460D02*
X13196315Y-14753984D01*
X13196315Y-14753984D02*
X13234410Y-14753984D01*
X13234410Y-14753984D02*
X13253458Y-14744460D01*
X13253458Y-14744460D02*
X13262982Y-14734936D01*
X13262982Y-14734936D02*
X13272505Y-14715888D01*
X13272505Y-14715888D02*
X13272505Y-14668269D01*
X13272505Y-14668269D02*
X13262982Y-14649222D01*
X13262982Y-14649222D02*
X13253458Y-14639698D01*
X13253458Y-14639698D02*
X13234410Y-14630174D01*
X13234410Y-14630174D02*
X13196315Y-14630174D01*
X13196315Y-14630174D02*
X13177267Y-14639698D01*
X13177267Y-14639698D02*
X13167743Y-14649222D01*
X13167743Y-14649222D02*
X13158220Y-14668269D01*
X13358220Y-14753984D02*
X13358220Y-14620650D01*
X13358220Y-14639698D02*
X13367743Y-14630174D01*
X13367743Y-14630174D02*
X13386791Y-14620650D01*
X13386791Y-14620650D02*
X13415363Y-14620650D01*
X13415363Y-14620650D02*
X13434410Y-14630174D01*
X13434410Y-14630174D02*
X13443934Y-14649222D01*
X13443934Y-14649222D02*
X13443934Y-14753984D01*
X13443934Y-14649222D02*
X13453458Y-14630174D01*
X13453458Y-14630174D02*
X13472505Y-14620650D01*
X13472505Y-14620650D02*
X13501077Y-14620650D01*
X13501077Y-14620650D02*
X13520124Y-14630174D01*
X13520124Y-14630174D02*
X13529648Y-14649222D01*
X13529648Y-14649222D02*
X13529648Y-14753984D01*
X13624886Y-14753984D02*
X13624886Y-14620650D01*
X13624886Y-14639698D02*
X13634410Y-14630174D01*
X13634410Y-14630174D02*
X13653458Y-14620650D01*
X13653458Y-14620650D02*
X13682029Y-14620650D01*
X13682029Y-14620650D02*
X13701077Y-14630174D01*
X13701077Y-14630174D02*
X13710601Y-14649222D01*
X13710601Y-14649222D02*
X13710601Y-14753984D01*
X13710601Y-14649222D02*
X13720124Y-14630174D01*
X13720124Y-14630174D02*
X13739172Y-14620650D01*
X13739172Y-14620650D02*
X13767743Y-14620650D01*
X13767743Y-14620650D02*
X13786791Y-14630174D01*
X13786791Y-14630174D02*
X13796315Y-14649222D01*
X13796315Y-14649222D02*
X13796315Y-14753984D01*
X14186791Y-14544460D02*
X14015363Y-14801603D01*
X14443934Y-14553984D02*
X14462982Y-14553984D01*
X14462982Y-14553984D02*
X14482029Y-14563508D01*
X14482029Y-14563508D02*
X14491553Y-14573031D01*
X14491553Y-14573031D02*
X14501077Y-14592079D01*
X14501077Y-14592079D02*
X14510601Y-14630174D01*
X14510601Y-14630174D02*
X14510601Y-14677793D01*
X14510601Y-14677793D02*
X14501077Y-14715888D01*
X14501077Y-14715888D02*
X14491553Y-14734936D01*
X14491553Y-14734936D02*
X14482029Y-14744460D01*
X14482029Y-14744460D02*
X14462982Y-14753984D01*
X14462982Y-14753984D02*
X14443934Y-14753984D01*
X14443934Y-14753984D02*
X14424886Y-14744460D01*
X14424886Y-14744460D02*
X14415363Y-14734936D01*
X14415363Y-14734936D02*
X14405839Y-14715888D01*
X14405839Y-14715888D02*
X14396315Y-14677793D01*
X14396315Y-14677793D02*
X14396315Y-14630174D01*
X14396315Y-14630174D02*
X14405839Y-14592079D01*
X14405839Y-14592079D02*
X14415363Y-14573031D01*
X14415363Y-14573031D02*
X14424886Y-14563508D01*
X14424886Y-14563508D02*
X14443934Y-14553984D01*
X14596315Y-14734936D02*
X14605839Y-14744460D01*
X14605839Y-14744460D02*
X14596315Y-14753984D01*
X14596315Y-14753984D02*
X14586791Y-14744460D01*
X14586791Y-14744460D02*
X14596315Y-14734936D01*
X14596315Y-14734936D02*
X14596315Y-14753984D01*
X14729648Y-14553984D02*
X14748696Y-14553984D01*
X14748696Y-14553984D02*
X14767744Y-14563508D01*
X14767744Y-14563508D02*
X14777267Y-14573031D01*
X14777267Y-14573031D02*
X14786791Y-14592079D01*
X14786791Y-14592079D02*
X14796315Y-14630174D01*
X14796315Y-14630174D02*
X14796315Y-14677793D01*
X14796315Y-14677793D02*
X14786791Y-14715888D01*
X14786791Y-14715888D02*
X14777267Y-14734936D01*
X14777267Y-14734936D02*
X14767744Y-14744460D01*
X14767744Y-14744460D02*
X14748696Y-14753984D01*
X14748696Y-14753984D02*
X14729648Y-14753984D01*
X14729648Y-14753984D02*
X14710601Y-14744460D01*
X14710601Y-14744460D02*
X14701077Y-14734936D01*
X14701077Y-14734936D02*
X14691553Y-14715888D01*
X14691553Y-14715888D02*
X14682029Y-14677793D01*
X14682029Y-14677793D02*
X14682029Y-14630174D01*
X14682029Y-14630174D02*
X14691553Y-14592079D01*
X14691553Y-14592079D02*
X14701077Y-14573031D01*
X14701077Y-14573031D02*
X14710601Y-14563508D01*
X14710601Y-14563508D02*
X14729648Y-14553984D01*
X14967744Y-14620650D02*
X14967744Y-14753984D01*
X14920125Y-14544460D02*
X14872506Y-14687317D01*
X14872506Y-14687317D02*
X14996315Y-14687317D01*
X15110601Y-14553984D02*
X15129648Y-14553984D01*
X15129648Y-14553984D02*
X15148696Y-14563508D01*
X15148696Y-14563508D02*
X15158220Y-14573031D01*
X15158220Y-14573031D02*
X15167744Y-14592079D01*
X15167744Y-14592079D02*
X15177267Y-14630174D01*
X15177267Y-14630174D02*
X15177267Y-14677793D01*
X15177267Y-14677793D02*
X15167744Y-14715888D01*
X15167744Y-14715888D02*
X15158220Y-14734936D01*
X15158220Y-14734936D02*
X15148696Y-14744460D01*
X15148696Y-14744460D02*
X15129648Y-14753984D01*
X15129648Y-14753984D02*
X15110601Y-14753984D01*
X15110601Y-14753984D02*
X15091553Y-14744460D01*
X15091553Y-14744460D02*
X15082029Y-14734936D01*
X15082029Y-14734936D02*
X15072506Y-14715888D01*
X15072506Y-14715888D02*
X15062982Y-14677793D01*
X15062982Y-14677793D02*
X15062982Y-14630174D01*
X15062982Y-14630174D02*
X15072506Y-14592079D01*
X15072506Y-14592079D02*
X15082029Y-14573031D01*
X15082029Y-14573031D02*
X15091553Y-14563508D01*
X15091553Y-14563508D02*
X15110601Y-14553984D01*
X15301077Y-14553984D02*
X15320125Y-14553984D01*
X15320125Y-14553984D02*
X15339172Y-14563508D01*
X15339172Y-14563508D02*
X15348696Y-14573031D01*
X15348696Y-14573031D02*
X15358220Y-14592079D01*
X15358220Y-14592079D02*
X15367744Y-14630174D01*
X15367744Y-14630174D02*
X15367744Y-14677793D01*
X15367744Y-14677793D02*
X15358220Y-14715888D01*
X15358220Y-14715888D02*
X15348696Y-14734936D01*
X15348696Y-14734936D02*
X15339172Y-14744460D01*
X15339172Y-14744460D02*
X15320125Y-14753984D01*
X15320125Y-14753984D02*
X15301077Y-14753984D01*
X15301077Y-14753984D02*
X15282029Y-14744460D01*
X15282029Y-14744460D02*
X15272506Y-14734936D01*
X15272506Y-14734936D02*
X15262982Y-14715888D01*
X15262982Y-14715888D02*
X15253458Y-14677793D01*
X15253458Y-14677793D02*
X15253458Y-14630174D01*
X15253458Y-14630174D02*
X15262982Y-14592079D01*
X15262982Y-14592079D02*
X15272506Y-14573031D01*
X15272506Y-14573031D02*
X15282029Y-14563508D01*
X15282029Y-14563508D02*
X15301077Y-14553984D01*
X15443934Y-14553984D02*
X15443934Y-14592079D01*
X15520125Y-14553984D02*
X15520125Y-14592079D01*
X15815363Y-14830174D02*
X15805839Y-14820650D01*
X15805839Y-14820650D02*
X15786791Y-14792079D01*
X15786791Y-14792079D02*
X15777268Y-14773031D01*
X15777268Y-14773031D02*
X15767744Y-14744460D01*
X15767744Y-14744460D02*
X15758220Y-14696841D01*
X15758220Y-14696841D02*
X15758220Y-14658746D01*
X15758220Y-14658746D02*
X15767744Y-14611127D01*
X15767744Y-14611127D02*
X15777268Y-14582555D01*
X15777268Y-14582555D02*
X15786791Y-14563508D01*
X15786791Y-14563508D02*
X15805839Y-14534936D01*
X15805839Y-14534936D02*
X15815363Y-14525412D01*
X15929648Y-14553984D02*
X15948696Y-14553984D01*
X15948696Y-14553984D02*
X15967744Y-14563508D01*
X15967744Y-14563508D02*
X15977268Y-14573031D01*
X15977268Y-14573031D02*
X15986791Y-14592079D01*
X15986791Y-14592079D02*
X15996315Y-14630174D01*
X15996315Y-14630174D02*
X15996315Y-14677793D01*
X15996315Y-14677793D02*
X15986791Y-14715888D01*
X15986791Y-14715888D02*
X15977268Y-14734936D01*
X15977268Y-14734936D02*
X15967744Y-14744460D01*
X15967744Y-14744460D02*
X15948696Y-14753984D01*
X15948696Y-14753984D02*
X15929648Y-14753984D01*
X15929648Y-14753984D02*
X15910601Y-14744460D01*
X15910601Y-14744460D02*
X15901077Y-14734936D01*
X15901077Y-14734936D02*
X15891553Y-14715888D01*
X15891553Y-14715888D02*
X15882029Y-14677793D01*
X15882029Y-14677793D02*
X15882029Y-14630174D01*
X15882029Y-14630174D02*
X15891553Y-14592079D01*
X15891553Y-14592079D02*
X15901077Y-14573031D01*
X15901077Y-14573031D02*
X15910601Y-14563508D01*
X15910601Y-14563508D02*
X15929648Y-14553984D01*
X16234410Y-14753984D02*
X16234410Y-14553984D01*
X16320125Y-14753984D02*
X16320125Y-14649222D01*
X16320125Y-14649222D02*
X16310601Y-14630174D01*
X16310601Y-14630174D02*
X16291553Y-14620650D01*
X16291553Y-14620650D02*
X16262982Y-14620650D01*
X16262982Y-14620650D02*
X16243934Y-14630174D01*
X16243934Y-14630174D02*
X16234410Y-14639698D01*
X16443934Y-14753984D02*
X16424887Y-14744460D01*
X16424887Y-14744460D02*
X16415363Y-14734936D01*
X16415363Y-14734936D02*
X16405839Y-14715888D01*
X16405839Y-14715888D02*
X16405839Y-14658746D01*
X16405839Y-14658746D02*
X16415363Y-14639698D01*
X16415363Y-14639698D02*
X16424887Y-14630174D01*
X16424887Y-14630174D02*
X16443934Y-14620650D01*
X16443934Y-14620650D02*
X16472506Y-14620650D01*
X16472506Y-14620650D02*
X16491553Y-14630174D01*
X16491553Y-14630174D02*
X16501077Y-14639698D01*
X16501077Y-14639698D02*
X16510601Y-14658746D01*
X16510601Y-14658746D02*
X16510601Y-14715888D01*
X16510601Y-14715888D02*
X16501077Y-14734936D01*
X16501077Y-14734936D02*
X16491553Y-14744460D01*
X16491553Y-14744460D02*
X16472506Y-14753984D01*
X16472506Y-14753984D02*
X16443934Y-14753984D01*
X16624887Y-14753984D02*
X16605839Y-14744460D01*
X16605839Y-14744460D02*
X16596315Y-14725412D01*
X16596315Y-14725412D02*
X16596315Y-14553984D01*
X16777268Y-14744460D02*
X16758220Y-14753984D01*
X16758220Y-14753984D02*
X16720125Y-14753984D01*
X16720125Y-14753984D02*
X16701077Y-14744460D01*
X16701077Y-14744460D02*
X16691553Y-14725412D01*
X16691553Y-14725412D02*
X16691553Y-14649222D01*
X16691553Y-14649222D02*
X16701077Y-14630174D01*
X16701077Y-14630174D02*
X16720125Y-14620650D01*
X16720125Y-14620650D02*
X16758220Y-14620650D01*
X16758220Y-14620650D02*
X16777268Y-14630174D01*
X16777268Y-14630174D02*
X16786792Y-14649222D01*
X16786792Y-14649222D02*
X16786792Y-14668269D01*
X16786792Y-14668269D02*
X16691553Y-14687317D01*
X16862982Y-14744460D02*
X16882030Y-14753984D01*
X16882030Y-14753984D02*
X16920125Y-14753984D01*
X16920125Y-14753984D02*
X16939173Y-14744460D01*
X16939173Y-14744460D02*
X16948696Y-14725412D01*
X16948696Y-14725412D02*
X16948696Y-14715888D01*
X16948696Y-14715888D02*
X16939173Y-14696841D01*
X16939173Y-14696841D02*
X16920125Y-14687317D01*
X16920125Y-14687317D02*
X16891553Y-14687317D01*
X16891553Y-14687317D02*
X16872506Y-14677793D01*
X16872506Y-14677793D02*
X16862982Y-14658746D01*
X16862982Y-14658746D02*
X16862982Y-14649222D01*
X16862982Y-14649222D02*
X16872506Y-14630174D01*
X16872506Y-14630174D02*
X16891553Y-14620650D01*
X16891553Y-14620650D02*
X16920125Y-14620650D01*
X16920125Y-14620650D02*
X16939173Y-14630174D01*
X17186792Y-14677793D02*
X17339173Y-14677793D01*
X17262982Y-14753984D02*
X17262982Y-14601603D01*
X17577268Y-14573031D02*
X17586792Y-14563508D01*
X17586792Y-14563508D02*
X17605839Y-14553984D01*
X17605839Y-14553984D02*
X17653458Y-14553984D01*
X17653458Y-14553984D02*
X17672506Y-14563508D01*
X17672506Y-14563508D02*
X17682030Y-14573031D01*
X17682030Y-14573031D02*
X17691554Y-14592079D01*
X17691554Y-14592079D02*
X17691554Y-14611127D01*
X17691554Y-14611127D02*
X17682030Y-14639698D01*
X17682030Y-14639698D02*
X17567744Y-14753984D01*
X17567744Y-14753984D02*
X17691554Y-14753984D01*
X17920125Y-14744460D02*
X17939173Y-14753984D01*
X17939173Y-14753984D02*
X17977268Y-14753984D01*
X17977268Y-14753984D02*
X17996316Y-14744460D01*
X17996316Y-14744460D02*
X18005839Y-14725412D01*
X18005839Y-14725412D02*
X18005839Y-14715888D01*
X18005839Y-14715888D02*
X17996316Y-14696841D01*
X17996316Y-14696841D02*
X17977268Y-14687317D01*
X17977268Y-14687317D02*
X17948696Y-14687317D01*
X17948696Y-14687317D02*
X17929649Y-14677793D01*
X17929649Y-14677793D02*
X17920125Y-14658746D01*
X17920125Y-14658746D02*
X17920125Y-14649222D01*
X17920125Y-14649222D02*
X17929649Y-14630174D01*
X17929649Y-14630174D02*
X17948696Y-14620650D01*
X17948696Y-14620650D02*
X17977268Y-14620650D01*
X17977268Y-14620650D02*
X17996316Y-14630174D01*
X18120125Y-14753984D02*
X18101077Y-14744460D01*
X18101077Y-14744460D02*
X18091554Y-14725412D01*
X18091554Y-14725412D02*
X18091554Y-14553984D01*
X18224887Y-14753984D02*
X18205839Y-14744460D01*
X18205839Y-14744460D02*
X18196316Y-14734936D01*
X18196316Y-14734936D02*
X18186792Y-14715888D01*
X18186792Y-14715888D02*
X18186792Y-14658746D01*
X18186792Y-14658746D02*
X18196316Y-14639698D01*
X18196316Y-14639698D02*
X18205839Y-14630174D01*
X18205839Y-14630174D02*
X18224887Y-14620650D01*
X18224887Y-14620650D02*
X18253458Y-14620650D01*
X18253458Y-14620650D02*
X18272506Y-14630174D01*
X18272506Y-14630174D02*
X18282030Y-14639698D01*
X18282030Y-14639698D02*
X18291554Y-14658746D01*
X18291554Y-14658746D02*
X18291554Y-14715888D01*
X18291554Y-14715888D02*
X18282030Y-14734936D01*
X18282030Y-14734936D02*
X18272506Y-14744460D01*
X18272506Y-14744460D02*
X18253458Y-14753984D01*
X18253458Y-14753984D02*
X18224887Y-14753984D01*
X18348697Y-14620650D02*
X18424887Y-14620650D01*
X18377268Y-14553984D02*
X18377268Y-14725412D01*
X18377268Y-14725412D02*
X18386792Y-14744460D01*
X18386792Y-14744460D02*
X18405839Y-14753984D01*
X18405839Y-14753984D02*
X18424887Y-14753984D01*
X18482030Y-14744460D02*
X18501077Y-14753984D01*
X18501077Y-14753984D02*
X18539173Y-14753984D01*
X18539173Y-14753984D02*
X18558220Y-14744460D01*
X18558220Y-14744460D02*
X18567744Y-14725412D01*
X18567744Y-14725412D02*
X18567744Y-14715888D01*
X18567744Y-14715888D02*
X18558220Y-14696841D01*
X18558220Y-14696841D02*
X18539173Y-14687317D01*
X18539173Y-14687317D02*
X18510601Y-14687317D01*
X18510601Y-14687317D02*
X18491554Y-14677793D01*
X18491554Y-14677793D02*
X18482030Y-14658746D01*
X18482030Y-14658746D02*
X18482030Y-14649222D01*
X18482030Y-14649222D02*
X18491554Y-14630174D01*
X18491554Y-14630174D02*
X18510601Y-14620650D01*
X18510601Y-14620650D02*
X18539173Y-14620650D01*
X18539173Y-14620650D02*
X18558220Y-14630174D01*
X18634411Y-14830174D02*
X18643935Y-14820650D01*
X18643935Y-14820650D02*
X18662982Y-14792079D01*
X18662982Y-14792079D02*
X18672506Y-14773031D01*
X18672506Y-14773031D02*
X18682030Y-14744460D01*
X18682030Y-14744460D02*
X18691554Y-14696841D01*
X18691554Y-14696841D02*
X18691554Y-14658746D01*
X18691554Y-14658746D02*
X18682030Y-14611127D01*
X18682030Y-14611127D02*
X18672506Y-14582555D01*
X18672506Y-14582555D02*
X18662982Y-14563508D01*
X18662982Y-14563508D02*
X18643935Y-14534936D01*
X18643935Y-14534936D02*
X18634411Y-14525412D01*
D14*
X12120300Y-14866500D02*
X12240300Y-14986500D01*
X12240300Y-14866500D02*
X12120300Y-14986500D01*
X12180300Y-14866500D02*
X12180300Y-14986500D01*
X12120300Y-14926500D02*
X12240300Y-14926500D01*
D11*
X12605839Y-15017984D02*
X12491553Y-15017984D01*
X12548696Y-15017984D02*
X12548696Y-14817984D01*
X12548696Y-14817984D02*
X12529648Y-14846555D01*
X12529648Y-14846555D02*
X12510601Y-14865603D01*
X12510601Y-14865603D02*
X12491553Y-14875127D01*
X12691553Y-14998936D02*
X12701077Y-15008460D01*
X12701077Y-15008460D02*
X12691553Y-15017984D01*
X12691553Y-15017984D02*
X12682029Y-15008460D01*
X12682029Y-15008460D02*
X12691553Y-14998936D01*
X12691553Y-14998936D02*
X12691553Y-15017984D01*
X12777267Y-14837031D02*
X12786791Y-14827508D01*
X12786791Y-14827508D02*
X12805839Y-14817984D01*
X12805839Y-14817984D02*
X12853458Y-14817984D01*
X12853458Y-14817984D02*
X12872505Y-14827508D01*
X12872505Y-14827508D02*
X12882029Y-14837031D01*
X12882029Y-14837031D02*
X12891553Y-14856079D01*
X12891553Y-14856079D02*
X12891553Y-14875127D01*
X12891553Y-14875127D02*
X12882029Y-14903698D01*
X12882029Y-14903698D02*
X12767743Y-15017984D01*
X12767743Y-15017984D02*
X12891553Y-15017984D01*
X13015362Y-14817984D02*
X13034410Y-14817984D01*
X13034410Y-14817984D02*
X13053458Y-14827508D01*
X13053458Y-14827508D02*
X13062982Y-14837031D01*
X13062982Y-14837031D02*
X13072505Y-14856079D01*
X13072505Y-14856079D02*
X13082029Y-14894174D01*
X13082029Y-14894174D02*
X13082029Y-14941793D01*
X13082029Y-14941793D02*
X13072505Y-14979888D01*
X13072505Y-14979888D02*
X13062982Y-14998936D01*
X13062982Y-14998936D02*
X13053458Y-15008460D01*
X13053458Y-15008460D02*
X13034410Y-15017984D01*
X13034410Y-15017984D02*
X13015362Y-15017984D01*
X13015362Y-15017984D02*
X12996315Y-15008460D01*
X12996315Y-15008460D02*
X12986791Y-14998936D01*
X12986791Y-14998936D02*
X12977267Y-14979888D01*
X12977267Y-14979888D02*
X12967743Y-14941793D01*
X12967743Y-14941793D02*
X12967743Y-14894174D01*
X12967743Y-14894174D02*
X12977267Y-14856079D01*
X12977267Y-14856079D02*
X12986791Y-14837031D01*
X12986791Y-14837031D02*
X12996315Y-14827508D01*
X12996315Y-14827508D02*
X13015362Y-14817984D01*
X13205839Y-14817984D02*
X13224886Y-14817984D01*
X13224886Y-14817984D02*
X13243934Y-14827508D01*
X13243934Y-14827508D02*
X13253458Y-14837031D01*
X13253458Y-14837031D02*
X13262982Y-14856079D01*
X13262982Y-14856079D02*
X13272505Y-14894174D01*
X13272505Y-14894174D02*
X13272505Y-14941793D01*
X13272505Y-14941793D02*
X13262982Y-14979888D01*
X13262982Y-14979888D02*
X13253458Y-14998936D01*
X13253458Y-14998936D02*
X13243934Y-15008460D01*
X13243934Y-15008460D02*
X13224886Y-15017984D01*
X13224886Y-15017984D02*
X13205839Y-15017984D01*
X13205839Y-15017984D02*
X13186791Y-15008460D01*
X13186791Y-15008460D02*
X13177267Y-14998936D01*
X13177267Y-14998936D02*
X13167743Y-14979888D01*
X13167743Y-14979888D02*
X13158220Y-14941793D01*
X13158220Y-14941793D02*
X13158220Y-14894174D01*
X13158220Y-14894174D02*
X13167743Y-14856079D01*
X13167743Y-14856079D02*
X13177267Y-14837031D01*
X13177267Y-14837031D02*
X13186791Y-14827508D01*
X13186791Y-14827508D02*
X13205839Y-14817984D01*
X13358220Y-15017984D02*
X13358220Y-14884650D01*
X13358220Y-14903698D02*
X13367743Y-14894174D01*
X13367743Y-14894174D02*
X13386791Y-14884650D01*
X13386791Y-14884650D02*
X13415363Y-14884650D01*
X13415363Y-14884650D02*
X13434410Y-14894174D01*
X13434410Y-14894174D02*
X13443934Y-14913222D01*
X13443934Y-14913222D02*
X13443934Y-15017984D01*
X13443934Y-14913222D02*
X13453458Y-14894174D01*
X13453458Y-14894174D02*
X13472505Y-14884650D01*
X13472505Y-14884650D02*
X13501077Y-14884650D01*
X13501077Y-14884650D02*
X13520124Y-14894174D01*
X13520124Y-14894174D02*
X13529648Y-14913222D01*
X13529648Y-14913222D02*
X13529648Y-15017984D01*
X13624886Y-15017984D02*
X13624886Y-14884650D01*
X13624886Y-14903698D02*
X13634410Y-14894174D01*
X13634410Y-14894174D02*
X13653458Y-14884650D01*
X13653458Y-14884650D02*
X13682029Y-14884650D01*
X13682029Y-14884650D02*
X13701077Y-14894174D01*
X13701077Y-14894174D02*
X13710601Y-14913222D01*
X13710601Y-14913222D02*
X13710601Y-15017984D01*
X13710601Y-14913222D02*
X13720124Y-14894174D01*
X13720124Y-14894174D02*
X13739172Y-14884650D01*
X13739172Y-14884650D02*
X13767743Y-14884650D01*
X13767743Y-14884650D02*
X13786791Y-14894174D01*
X13786791Y-14894174D02*
X13796315Y-14913222D01*
X13796315Y-14913222D02*
X13796315Y-15017984D01*
X14186791Y-14808460D02*
X14015363Y-15065603D01*
X14443934Y-14817984D02*
X14462982Y-14817984D01*
X14462982Y-14817984D02*
X14482029Y-14827508D01*
X14482029Y-14827508D02*
X14491553Y-14837031D01*
X14491553Y-14837031D02*
X14501077Y-14856079D01*
X14501077Y-14856079D02*
X14510601Y-14894174D01*
X14510601Y-14894174D02*
X14510601Y-14941793D01*
X14510601Y-14941793D02*
X14501077Y-14979888D01*
X14501077Y-14979888D02*
X14491553Y-14998936D01*
X14491553Y-14998936D02*
X14482029Y-15008460D01*
X14482029Y-15008460D02*
X14462982Y-15017984D01*
X14462982Y-15017984D02*
X14443934Y-15017984D01*
X14443934Y-15017984D02*
X14424886Y-15008460D01*
X14424886Y-15008460D02*
X14415363Y-14998936D01*
X14415363Y-14998936D02*
X14405839Y-14979888D01*
X14405839Y-14979888D02*
X14396315Y-14941793D01*
X14396315Y-14941793D02*
X14396315Y-14894174D01*
X14396315Y-14894174D02*
X14405839Y-14856079D01*
X14405839Y-14856079D02*
X14415363Y-14837031D01*
X14415363Y-14837031D02*
X14424886Y-14827508D01*
X14424886Y-14827508D02*
X14443934Y-14817984D01*
X14596315Y-14998936D02*
X14605839Y-15008460D01*
X14605839Y-15008460D02*
X14596315Y-15017984D01*
X14596315Y-15017984D02*
X14586791Y-15008460D01*
X14586791Y-15008460D02*
X14596315Y-14998936D01*
X14596315Y-14998936D02*
X14596315Y-15017984D01*
X14729648Y-14817984D02*
X14748696Y-14817984D01*
X14748696Y-14817984D02*
X14767744Y-14827508D01*
X14767744Y-14827508D02*
X14777267Y-14837031D01*
X14777267Y-14837031D02*
X14786791Y-14856079D01*
X14786791Y-14856079D02*
X14796315Y-14894174D01*
X14796315Y-14894174D02*
X14796315Y-14941793D01*
X14796315Y-14941793D02*
X14786791Y-14979888D01*
X14786791Y-14979888D02*
X14777267Y-14998936D01*
X14777267Y-14998936D02*
X14767744Y-15008460D01*
X14767744Y-15008460D02*
X14748696Y-15017984D01*
X14748696Y-15017984D02*
X14729648Y-15017984D01*
X14729648Y-15017984D02*
X14710601Y-15008460D01*
X14710601Y-15008460D02*
X14701077Y-14998936D01*
X14701077Y-14998936D02*
X14691553Y-14979888D01*
X14691553Y-14979888D02*
X14682029Y-14941793D01*
X14682029Y-14941793D02*
X14682029Y-14894174D01*
X14682029Y-14894174D02*
X14691553Y-14856079D01*
X14691553Y-14856079D02*
X14701077Y-14837031D01*
X14701077Y-14837031D02*
X14710601Y-14827508D01*
X14710601Y-14827508D02*
X14729648Y-14817984D01*
X14967744Y-14884650D02*
X14967744Y-15017984D01*
X14920125Y-14808460D02*
X14872506Y-14951317D01*
X14872506Y-14951317D02*
X14996315Y-14951317D01*
X15053458Y-14817984D02*
X15186791Y-14817984D01*
X15186791Y-14817984D02*
X15101077Y-15017984D01*
X15253458Y-14837031D02*
X15262982Y-14827508D01*
X15262982Y-14827508D02*
X15282029Y-14817984D01*
X15282029Y-14817984D02*
X15329648Y-14817984D01*
X15329648Y-14817984D02*
X15348696Y-14827508D01*
X15348696Y-14827508D02*
X15358220Y-14837031D01*
X15358220Y-14837031D02*
X15367744Y-14856079D01*
X15367744Y-14856079D02*
X15367744Y-14875127D01*
X15367744Y-14875127D02*
X15358220Y-14903698D01*
X15358220Y-14903698D02*
X15243934Y-15017984D01*
X15243934Y-15017984D02*
X15367744Y-15017984D01*
X15443934Y-14817984D02*
X15443934Y-14856079D01*
X15520125Y-14817984D02*
X15520125Y-14856079D01*
X15815363Y-15094174D02*
X15805839Y-15084650D01*
X15805839Y-15084650D02*
X15786791Y-15056079D01*
X15786791Y-15056079D02*
X15777268Y-15037031D01*
X15777268Y-15037031D02*
X15767744Y-15008460D01*
X15767744Y-15008460D02*
X15758220Y-14960841D01*
X15758220Y-14960841D02*
X15758220Y-14922746D01*
X15758220Y-14922746D02*
X15767744Y-14875127D01*
X15767744Y-14875127D02*
X15777268Y-14846555D01*
X15777268Y-14846555D02*
X15786791Y-14827508D01*
X15786791Y-14827508D02*
X15805839Y-14798936D01*
X15805839Y-14798936D02*
X15815363Y-14789412D01*
X15872506Y-14817984D02*
X15996315Y-14817984D01*
X15996315Y-14817984D02*
X15929648Y-14894174D01*
X15929648Y-14894174D02*
X15958220Y-14894174D01*
X15958220Y-14894174D02*
X15977268Y-14903698D01*
X15977268Y-14903698D02*
X15986791Y-14913222D01*
X15986791Y-14913222D02*
X15996315Y-14932269D01*
X15996315Y-14932269D02*
X15996315Y-14979888D01*
X15996315Y-14979888D02*
X15986791Y-14998936D01*
X15986791Y-14998936D02*
X15977268Y-15008460D01*
X15977268Y-15008460D02*
X15958220Y-15017984D01*
X15958220Y-15017984D02*
X15901077Y-15017984D01*
X15901077Y-15017984D02*
X15882029Y-15008460D01*
X15882029Y-15008460D02*
X15872506Y-14998936D01*
X16234410Y-15017984D02*
X16234410Y-14817984D01*
X16320125Y-15017984D02*
X16320125Y-14913222D01*
X16320125Y-14913222D02*
X16310601Y-14894174D01*
X16310601Y-14894174D02*
X16291553Y-14884650D01*
X16291553Y-14884650D02*
X16262982Y-14884650D01*
X16262982Y-14884650D02*
X16243934Y-14894174D01*
X16243934Y-14894174D02*
X16234410Y-14903698D01*
X16443934Y-15017984D02*
X16424887Y-15008460D01*
X16424887Y-15008460D02*
X16415363Y-14998936D01*
X16415363Y-14998936D02*
X16405839Y-14979888D01*
X16405839Y-14979888D02*
X16405839Y-14922746D01*
X16405839Y-14922746D02*
X16415363Y-14903698D01*
X16415363Y-14903698D02*
X16424887Y-14894174D01*
X16424887Y-14894174D02*
X16443934Y-14884650D01*
X16443934Y-14884650D02*
X16472506Y-14884650D01*
X16472506Y-14884650D02*
X16491553Y-14894174D01*
X16491553Y-14894174D02*
X16501077Y-14903698D01*
X16501077Y-14903698D02*
X16510601Y-14922746D01*
X16510601Y-14922746D02*
X16510601Y-14979888D01*
X16510601Y-14979888D02*
X16501077Y-14998936D01*
X16501077Y-14998936D02*
X16491553Y-15008460D01*
X16491553Y-15008460D02*
X16472506Y-15017984D01*
X16472506Y-15017984D02*
X16443934Y-15017984D01*
X16624887Y-15017984D02*
X16605839Y-15008460D01*
X16605839Y-15008460D02*
X16596315Y-14989412D01*
X16596315Y-14989412D02*
X16596315Y-14817984D01*
X16777268Y-15008460D02*
X16758220Y-15017984D01*
X16758220Y-15017984D02*
X16720125Y-15017984D01*
X16720125Y-15017984D02*
X16701077Y-15008460D01*
X16701077Y-15008460D02*
X16691553Y-14989412D01*
X16691553Y-14989412D02*
X16691553Y-14913222D01*
X16691553Y-14913222D02*
X16701077Y-14894174D01*
X16701077Y-14894174D02*
X16720125Y-14884650D01*
X16720125Y-14884650D02*
X16758220Y-14884650D01*
X16758220Y-14884650D02*
X16777268Y-14894174D01*
X16777268Y-14894174D02*
X16786792Y-14913222D01*
X16786792Y-14913222D02*
X16786792Y-14932269D01*
X16786792Y-14932269D02*
X16691553Y-14951317D01*
X16862982Y-15008460D02*
X16882030Y-15017984D01*
X16882030Y-15017984D02*
X16920125Y-15017984D01*
X16920125Y-15017984D02*
X16939173Y-15008460D01*
X16939173Y-15008460D02*
X16948696Y-14989412D01*
X16948696Y-14989412D02*
X16948696Y-14979888D01*
X16948696Y-14979888D02*
X16939173Y-14960841D01*
X16939173Y-14960841D02*
X16920125Y-14951317D01*
X16920125Y-14951317D02*
X16891553Y-14951317D01*
X16891553Y-14951317D02*
X16872506Y-14941793D01*
X16872506Y-14941793D02*
X16862982Y-14922746D01*
X16862982Y-14922746D02*
X16862982Y-14913222D01*
X16862982Y-14913222D02*
X16872506Y-14894174D01*
X16872506Y-14894174D02*
X16891553Y-14884650D01*
X16891553Y-14884650D02*
X16920125Y-14884650D01*
X16920125Y-14884650D02*
X16939173Y-14894174D01*
X17015363Y-15094174D02*
X17024887Y-15084650D01*
X17024887Y-15084650D02*
X17043934Y-15056079D01*
X17043934Y-15056079D02*
X17053458Y-15037031D01*
X17053458Y-15037031D02*
X17062982Y-15008460D01*
X17062982Y-15008460D02*
X17072506Y-14960841D01*
X17072506Y-14960841D02*
X17072506Y-14922746D01*
X17072506Y-14922746D02*
X17062982Y-14875127D01*
X17062982Y-14875127D02*
X17053458Y-14846555D01*
X17053458Y-14846555D02*
X17043934Y-14827508D01*
X17043934Y-14827508D02*
X17024887Y-14798936D01*
X17024887Y-14798936D02*
X17015363Y-14789412D01*
X12040300Y-15090500D02*
X12240300Y-15290500D01*
X12240300Y-15090500D02*
X12040300Y-15290500D01*
X12211011Y-15261211D02*
X12211011Y-15119789D01*
X12069589Y-15119789D01*
X12069589Y-15261211D01*
X12211011Y-15261211D01*
X12491553Y-15101031D02*
X12501077Y-15091508D01*
X12501077Y-15091508D02*
X12520124Y-15081984D01*
X12520124Y-15081984D02*
X12567743Y-15081984D01*
X12567743Y-15081984D02*
X12586791Y-15091508D01*
X12586791Y-15091508D02*
X12596315Y-15101031D01*
X12596315Y-15101031D02*
X12605839Y-15120079D01*
X12605839Y-15120079D02*
X12605839Y-15139127D01*
X12605839Y-15139127D02*
X12596315Y-15167698D01*
X12596315Y-15167698D02*
X12482029Y-15281984D01*
X12482029Y-15281984D02*
X12605839Y-15281984D01*
X12691553Y-15262936D02*
X12701077Y-15272460D01*
X12701077Y-15272460D02*
X12691553Y-15281984D01*
X12691553Y-15281984D02*
X12682029Y-15272460D01*
X12682029Y-15272460D02*
X12691553Y-15262936D01*
X12691553Y-15262936D02*
X12691553Y-15281984D01*
X12777267Y-15101031D02*
X12786791Y-15091508D01*
X12786791Y-15091508D02*
X12805839Y-15081984D01*
X12805839Y-15081984D02*
X12853458Y-15081984D01*
X12853458Y-15081984D02*
X12872505Y-15091508D01*
X12872505Y-15091508D02*
X12882029Y-15101031D01*
X12882029Y-15101031D02*
X12891553Y-15120079D01*
X12891553Y-15120079D02*
X12891553Y-15139127D01*
X12891553Y-15139127D02*
X12882029Y-15167698D01*
X12882029Y-15167698D02*
X12767743Y-15281984D01*
X12767743Y-15281984D02*
X12891553Y-15281984D01*
X13005839Y-15167698D02*
X12986791Y-15158174D01*
X12986791Y-15158174D02*
X12977267Y-15148650D01*
X12977267Y-15148650D02*
X12967743Y-15129603D01*
X12967743Y-15129603D02*
X12967743Y-15120079D01*
X12967743Y-15120079D02*
X12977267Y-15101031D01*
X12977267Y-15101031D02*
X12986791Y-15091508D01*
X12986791Y-15091508D02*
X13005839Y-15081984D01*
X13005839Y-15081984D02*
X13043934Y-15081984D01*
X13043934Y-15081984D02*
X13062982Y-15091508D01*
X13062982Y-15091508D02*
X13072505Y-15101031D01*
X13072505Y-15101031D02*
X13082029Y-15120079D01*
X13082029Y-15120079D02*
X13082029Y-15129603D01*
X13082029Y-15129603D02*
X13072505Y-15148650D01*
X13072505Y-15148650D02*
X13062982Y-15158174D01*
X13062982Y-15158174D02*
X13043934Y-15167698D01*
X13043934Y-15167698D02*
X13005839Y-15167698D01*
X13005839Y-15167698D02*
X12986791Y-15177222D01*
X12986791Y-15177222D02*
X12977267Y-15186746D01*
X12977267Y-15186746D02*
X12967743Y-15205793D01*
X12967743Y-15205793D02*
X12967743Y-15243888D01*
X12967743Y-15243888D02*
X12977267Y-15262936D01*
X12977267Y-15262936D02*
X12986791Y-15272460D01*
X12986791Y-15272460D02*
X13005839Y-15281984D01*
X13005839Y-15281984D02*
X13043934Y-15281984D01*
X13043934Y-15281984D02*
X13062982Y-15272460D01*
X13062982Y-15272460D02*
X13072505Y-15262936D01*
X13072505Y-15262936D02*
X13082029Y-15243888D01*
X13082029Y-15243888D02*
X13082029Y-15205793D01*
X13082029Y-15205793D02*
X13072505Y-15186746D01*
X13072505Y-15186746D02*
X13062982Y-15177222D01*
X13062982Y-15177222D02*
X13043934Y-15167698D01*
X13253458Y-15081984D02*
X13215362Y-15081984D01*
X13215362Y-15081984D02*
X13196315Y-15091508D01*
X13196315Y-15091508D02*
X13186791Y-15101031D01*
X13186791Y-15101031D02*
X13167743Y-15129603D01*
X13167743Y-15129603D02*
X13158220Y-15167698D01*
X13158220Y-15167698D02*
X13158220Y-15243888D01*
X13158220Y-15243888D02*
X13167743Y-15262936D01*
X13167743Y-15262936D02*
X13177267Y-15272460D01*
X13177267Y-15272460D02*
X13196315Y-15281984D01*
X13196315Y-15281984D02*
X13234410Y-15281984D01*
X13234410Y-15281984D02*
X13253458Y-15272460D01*
X13253458Y-15272460D02*
X13262982Y-15262936D01*
X13262982Y-15262936D02*
X13272505Y-15243888D01*
X13272505Y-15243888D02*
X13272505Y-15196269D01*
X13272505Y-15196269D02*
X13262982Y-15177222D01*
X13262982Y-15177222D02*
X13253458Y-15167698D01*
X13253458Y-15167698D02*
X13234410Y-15158174D01*
X13234410Y-15158174D02*
X13196315Y-15158174D01*
X13196315Y-15158174D02*
X13177267Y-15167698D01*
X13177267Y-15167698D02*
X13167743Y-15177222D01*
X13167743Y-15177222D02*
X13158220Y-15196269D01*
X13358220Y-15281984D02*
X13358220Y-15148650D01*
X13358220Y-15167698D02*
X13367743Y-15158174D01*
X13367743Y-15158174D02*
X13386791Y-15148650D01*
X13386791Y-15148650D02*
X13415363Y-15148650D01*
X13415363Y-15148650D02*
X13434410Y-15158174D01*
X13434410Y-15158174D02*
X13443934Y-15177222D01*
X13443934Y-15177222D02*
X13443934Y-15281984D01*
X13443934Y-15177222D02*
X13453458Y-15158174D01*
X13453458Y-15158174D02*
X13472505Y-15148650D01*
X13472505Y-15148650D02*
X13501077Y-15148650D01*
X13501077Y-15148650D02*
X13520124Y-15158174D01*
X13520124Y-15158174D02*
X13529648Y-15177222D01*
X13529648Y-15177222D02*
X13529648Y-15281984D01*
X13624886Y-15281984D02*
X13624886Y-15148650D01*
X13624886Y-15167698D02*
X13634410Y-15158174D01*
X13634410Y-15158174D02*
X13653458Y-15148650D01*
X13653458Y-15148650D02*
X13682029Y-15148650D01*
X13682029Y-15148650D02*
X13701077Y-15158174D01*
X13701077Y-15158174D02*
X13710601Y-15177222D01*
X13710601Y-15177222D02*
X13710601Y-15281984D01*
X13710601Y-15177222D02*
X13720124Y-15158174D01*
X13720124Y-15158174D02*
X13739172Y-15148650D01*
X13739172Y-15148650D02*
X13767743Y-15148650D01*
X13767743Y-15148650D02*
X13786791Y-15158174D01*
X13786791Y-15158174D02*
X13796315Y-15177222D01*
X13796315Y-15177222D02*
X13796315Y-15281984D01*
X14186791Y-15072460D02*
X14015363Y-15329603D01*
X14443934Y-15081984D02*
X14462982Y-15081984D01*
X14462982Y-15081984D02*
X14482029Y-15091508D01*
X14482029Y-15091508D02*
X14491553Y-15101031D01*
X14491553Y-15101031D02*
X14501077Y-15120079D01*
X14501077Y-15120079D02*
X14510601Y-15158174D01*
X14510601Y-15158174D02*
X14510601Y-15205793D01*
X14510601Y-15205793D02*
X14501077Y-15243888D01*
X14501077Y-15243888D02*
X14491553Y-15262936D01*
X14491553Y-15262936D02*
X14482029Y-15272460D01*
X14482029Y-15272460D02*
X14462982Y-15281984D01*
X14462982Y-15281984D02*
X14443934Y-15281984D01*
X14443934Y-15281984D02*
X14424886Y-15272460D01*
X14424886Y-15272460D02*
X14415363Y-15262936D01*
X14415363Y-15262936D02*
X14405839Y-15243888D01*
X14405839Y-15243888D02*
X14396315Y-15205793D01*
X14396315Y-15205793D02*
X14396315Y-15158174D01*
X14396315Y-15158174D02*
X14405839Y-15120079D01*
X14405839Y-15120079D02*
X14415363Y-15101031D01*
X14415363Y-15101031D02*
X14424886Y-15091508D01*
X14424886Y-15091508D02*
X14443934Y-15081984D01*
X14596315Y-15262936D02*
X14605839Y-15272460D01*
X14605839Y-15272460D02*
X14596315Y-15281984D01*
X14596315Y-15281984D02*
X14586791Y-15272460D01*
X14586791Y-15272460D02*
X14596315Y-15262936D01*
X14596315Y-15262936D02*
X14596315Y-15281984D01*
X14729648Y-15081984D02*
X14748696Y-15081984D01*
X14748696Y-15081984D02*
X14767744Y-15091508D01*
X14767744Y-15091508D02*
X14777267Y-15101031D01*
X14777267Y-15101031D02*
X14786791Y-15120079D01*
X14786791Y-15120079D02*
X14796315Y-15158174D01*
X14796315Y-15158174D02*
X14796315Y-15205793D01*
X14796315Y-15205793D02*
X14786791Y-15243888D01*
X14786791Y-15243888D02*
X14777267Y-15262936D01*
X14777267Y-15262936D02*
X14767744Y-15272460D01*
X14767744Y-15272460D02*
X14748696Y-15281984D01*
X14748696Y-15281984D02*
X14729648Y-15281984D01*
X14729648Y-15281984D02*
X14710601Y-15272460D01*
X14710601Y-15272460D02*
X14701077Y-15262936D01*
X14701077Y-15262936D02*
X14691553Y-15243888D01*
X14691553Y-15243888D02*
X14682029Y-15205793D01*
X14682029Y-15205793D02*
X14682029Y-15158174D01*
X14682029Y-15158174D02*
X14691553Y-15120079D01*
X14691553Y-15120079D02*
X14701077Y-15101031D01*
X14701077Y-15101031D02*
X14710601Y-15091508D01*
X14710601Y-15091508D02*
X14729648Y-15081984D01*
X14891553Y-15281984D02*
X14929648Y-15281984D01*
X14929648Y-15281984D02*
X14948696Y-15272460D01*
X14948696Y-15272460D02*
X14958220Y-15262936D01*
X14958220Y-15262936D02*
X14977267Y-15234365D01*
X14977267Y-15234365D02*
X14986791Y-15196269D01*
X14986791Y-15196269D02*
X14986791Y-15120079D01*
X14986791Y-15120079D02*
X14977267Y-15101031D01*
X14977267Y-15101031D02*
X14967744Y-15091508D01*
X14967744Y-15091508D02*
X14948696Y-15081984D01*
X14948696Y-15081984D02*
X14910601Y-15081984D01*
X14910601Y-15081984D02*
X14891553Y-15091508D01*
X14891553Y-15091508D02*
X14882029Y-15101031D01*
X14882029Y-15101031D02*
X14872506Y-15120079D01*
X14872506Y-15120079D02*
X14872506Y-15167698D01*
X14872506Y-15167698D02*
X14882029Y-15186746D01*
X14882029Y-15186746D02*
X14891553Y-15196269D01*
X14891553Y-15196269D02*
X14910601Y-15205793D01*
X14910601Y-15205793D02*
X14948696Y-15205793D01*
X14948696Y-15205793D02*
X14967744Y-15196269D01*
X14967744Y-15196269D02*
X14977267Y-15186746D01*
X14977267Y-15186746D02*
X14986791Y-15167698D01*
X15110601Y-15081984D02*
X15129648Y-15081984D01*
X15129648Y-15081984D02*
X15148696Y-15091508D01*
X15148696Y-15091508D02*
X15158220Y-15101031D01*
X15158220Y-15101031D02*
X15167744Y-15120079D01*
X15167744Y-15120079D02*
X15177267Y-15158174D01*
X15177267Y-15158174D02*
X15177267Y-15205793D01*
X15177267Y-15205793D02*
X15167744Y-15243888D01*
X15167744Y-15243888D02*
X15158220Y-15262936D01*
X15158220Y-15262936D02*
X15148696Y-15272460D01*
X15148696Y-15272460D02*
X15129648Y-15281984D01*
X15129648Y-15281984D02*
X15110601Y-15281984D01*
X15110601Y-15281984D02*
X15091553Y-15272460D01*
X15091553Y-15272460D02*
X15082029Y-15262936D01*
X15082029Y-15262936D02*
X15072506Y-15243888D01*
X15072506Y-15243888D02*
X15062982Y-15205793D01*
X15062982Y-15205793D02*
X15062982Y-15158174D01*
X15062982Y-15158174D02*
X15072506Y-15120079D01*
X15072506Y-15120079D02*
X15082029Y-15101031D01*
X15082029Y-15101031D02*
X15091553Y-15091508D01*
X15091553Y-15091508D02*
X15110601Y-15081984D01*
X15301077Y-15081984D02*
X15320125Y-15081984D01*
X15320125Y-15081984D02*
X15339172Y-15091508D01*
X15339172Y-15091508D02*
X15348696Y-15101031D01*
X15348696Y-15101031D02*
X15358220Y-15120079D01*
X15358220Y-15120079D02*
X15367744Y-15158174D01*
X15367744Y-15158174D02*
X15367744Y-15205793D01*
X15367744Y-15205793D02*
X15358220Y-15243888D01*
X15358220Y-15243888D02*
X15348696Y-15262936D01*
X15348696Y-15262936D02*
X15339172Y-15272460D01*
X15339172Y-15272460D02*
X15320125Y-15281984D01*
X15320125Y-15281984D02*
X15301077Y-15281984D01*
X15301077Y-15281984D02*
X15282029Y-15272460D01*
X15282029Y-15272460D02*
X15272506Y-15262936D01*
X15272506Y-15262936D02*
X15262982Y-15243888D01*
X15262982Y-15243888D02*
X15253458Y-15205793D01*
X15253458Y-15205793D02*
X15253458Y-15158174D01*
X15253458Y-15158174D02*
X15262982Y-15120079D01*
X15262982Y-15120079D02*
X15272506Y-15101031D01*
X15272506Y-15101031D02*
X15282029Y-15091508D01*
X15282029Y-15091508D02*
X15301077Y-15081984D01*
X15443934Y-15081984D02*
X15443934Y-15120079D01*
X15520125Y-15081984D02*
X15520125Y-15120079D01*
X15815363Y-15358174D02*
X15805839Y-15348650D01*
X15805839Y-15348650D02*
X15786791Y-15320079D01*
X15786791Y-15320079D02*
X15777268Y-15301031D01*
X15777268Y-15301031D02*
X15767744Y-15272460D01*
X15767744Y-15272460D02*
X15758220Y-15224841D01*
X15758220Y-15224841D02*
X15758220Y-15186746D01*
X15758220Y-15186746D02*
X15767744Y-15139127D01*
X15767744Y-15139127D02*
X15777268Y-15110555D01*
X15777268Y-15110555D02*
X15786791Y-15091508D01*
X15786791Y-15091508D02*
X15805839Y-15062936D01*
X15805839Y-15062936D02*
X15815363Y-15053412D01*
X15882029Y-15101031D02*
X15891553Y-15091508D01*
X15891553Y-15091508D02*
X15910601Y-15081984D01*
X15910601Y-15081984D02*
X15958220Y-15081984D01*
X15958220Y-15081984D02*
X15977268Y-15091508D01*
X15977268Y-15091508D02*
X15986791Y-15101031D01*
X15986791Y-15101031D02*
X15996315Y-15120079D01*
X15996315Y-15120079D02*
X15996315Y-15139127D01*
X15996315Y-15139127D02*
X15986791Y-15167698D01*
X15986791Y-15167698D02*
X15872506Y-15281984D01*
X15872506Y-15281984D02*
X15996315Y-15281984D01*
X16234410Y-15281984D02*
X16234410Y-15081984D01*
X16320125Y-15281984D02*
X16320125Y-15177222D01*
X16320125Y-15177222D02*
X16310601Y-15158174D01*
X16310601Y-15158174D02*
X16291553Y-15148650D01*
X16291553Y-15148650D02*
X16262982Y-15148650D01*
X16262982Y-15148650D02*
X16243934Y-15158174D01*
X16243934Y-15158174D02*
X16234410Y-15167698D01*
X16443934Y-15281984D02*
X16424887Y-15272460D01*
X16424887Y-15272460D02*
X16415363Y-15262936D01*
X16415363Y-15262936D02*
X16405839Y-15243888D01*
X16405839Y-15243888D02*
X16405839Y-15186746D01*
X16405839Y-15186746D02*
X16415363Y-15167698D01*
X16415363Y-15167698D02*
X16424887Y-15158174D01*
X16424887Y-15158174D02*
X16443934Y-15148650D01*
X16443934Y-15148650D02*
X16472506Y-15148650D01*
X16472506Y-15148650D02*
X16491553Y-15158174D01*
X16491553Y-15158174D02*
X16501077Y-15167698D01*
X16501077Y-15167698D02*
X16510601Y-15186746D01*
X16510601Y-15186746D02*
X16510601Y-15243888D01*
X16510601Y-15243888D02*
X16501077Y-15262936D01*
X16501077Y-15262936D02*
X16491553Y-15272460D01*
X16491553Y-15272460D02*
X16472506Y-15281984D01*
X16472506Y-15281984D02*
X16443934Y-15281984D01*
X16624887Y-15281984D02*
X16605839Y-15272460D01*
X16605839Y-15272460D02*
X16596315Y-15253412D01*
X16596315Y-15253412D02*
X16596315Y-15081984D01*
X16777268Y-15272460D02*
X16758220Y-15281984D01*
X16758220Y-15281984D02*
X16720125Y-15281984D01*
X16720125Y-15281984D02*
X16701077Y-15272460D01*
X16701077Y-15272460D02*
X16691553Y-15253412D01*
X16691553Y-15253412D02*
X16691553Y-15177222D01*
X16691553Y-15177222D02*
X16701077Y-15158174D01*
X16701077Y-15158174D02*
X16720125Y-15148650D01*
X16720125Y-15148650D02*
X16758220Y-15148650D01*
X16758220Y-15148650D02*
X16777268Y-15158174D01*
X16777268Y-15158174D02*
X16786792Y-15177222D01*
X16786792Y-15177222D02*
X16786792Y-15196269D01*
X16786792Y-15196269D02*
X16691553Y-15215317D01*
X16862982Y-15272460D02*
X16882030Y-15281984D01*
X16882030Y-15281984D02*
X16920125Y-15281984D01*
X16920125Y-15281984D02*
X16939173Y-15272460D01*
X16939173Y-15272460D02*
X16948696Y-15253412D01*
X16948696Y-15253412D02*
X16948696Y-15243888D01*
X16948696Y-15243888D02*
X16939173Y-15224841D01*
X16939173Y-15224841D02*
X16920125Y-15215317D01*
X16920125Y-15215317D02*
X16891553Y-15215317D01*
X16891553Y-15215317D02*
X16872506Y-15205793D01*
X16872506Y-15205793D02*
X16862982Y-15186746D01*
X16862982Y-15186746D02*
X16862982Y-15177222D01*
X16862982Y-15177222D02*
X16872506Y-15158174D01*
X16872506Y-15158174D02*
X16891553Y-15148650D01*
X16891553Y-15148650D02*
X16920125Y-15148650D01*
X16920125Y-15148650D02*
X16939173Y-15158174D01*
X17015363Y-15358174D02*
X17024887Y-15348650D01*
X17024887Y-15348650D02*
X17043934Y-15320079D01*
X17043934Y-15320079D02*
X17053458Y-15301031D01*
X17053458Y-15301031D02*
X17062982Y-15272460D01*
X17062982Y-15272460D02*
X17072506Y-15224841D01*
X17072506Y-15224841D02*
X17072506Y-15186746D01*
X17072506Y-15186746D02*
X17062982Y-15139127D01*
X17062982Y-15139127D02*
X17053458Y-15110555D01*
X17053458Y-15110555D02*
X17043934Y-15091508D01*
X17043934Y-15091508D02*
X17024887Y-15062936D01*
X17024887Y-15062936D02*
X17015363Y-15053412D01*
M02*
