M48
; DRILL file {KiCad 9.0.6} date 2026-02-26T15:07:23-0800
; FORMAT={-:-/ absolute / metric / decimal}
; #@! TF.CreationDate,2026-02-26T15:07:23-08:00
; #@! TF.GenerationSoftware,Kicad,Pcbnew,9.0.6
; #@! TF.FileFunction,Plated,1,2,PTH
FMAT,2
METRIC
; #@! TA.AperFunction,Plated,PTH,ComponentDrill
T1C0.787
; #@! TA.AperFunction,Plated,PTH,ComponentDrill
T2C0.800
; #@! TA.AperFunction,Plated,PTH,ComponentDrill
T3C0.813
; #@! TA.AperFunction,Plated,PTH,ComponentDrill
T4C0.900
; #@! TA.AperFunction,Plated,PTH,ComponentDrill
T5C1.000
; #@! TA.AperFunction,Plated,PTH,ComponentDrill
T6C1.016
; #@! TA.AperFunction,Plated,PTH,ComponentDrill
T7C1.200
; #@! TA.AperFunction,Plated,PTH,ComponentDrill
T8C2.286
%
G90
G05
T1
X141.859Y-107.278
X141.859Y-114.898
X145.669Y-95.213
X145.669Y-102.833
X151.964Y-84.458
X152.019Y-108.458
X152.019Y-116.078
X156.489Y-108.548
X156.489Y-116.168
X157.48Y-91.948
X159.584Y-84.458
X159.639Y-108.548
X159.639Y-116.168
X162.814Y-108.548
X162.814Y-116.168
X165.1Y-91.948
T2
X137.668Y-80.902
X137.668Y-83.402
X139.7Y-95.258
X142.2Y-95.258
X146.812Y-80.902
X146.812Y-83.402
X147.32Y-111.128
X147.32Y-113.628
X149.225Y-97.155
X149.225Y-104.775
X151.765Y-97.155
X151.765Y-104.775
X151.964Y-88.903
X154.305Y-97.155
X154.305Y-104.775
X154.464Y-88.903
X156.845Y-97.155
X156.845Y-104.775
X162.56Y-98.592
X162.56Y-101.092
X169.545Y-109.858
X169.545Y-112.358
T3
X134.988Y-93.98
X134.988Y-96.52
T4
X137.033Y-76.417
X140.208Y-88.646
X144.653Y-76.417
X147.828Y-88.646
T7
X166.624Y-78.486
X166.624Y-81.026
X166.624Y-83.566
T8
X130.048Y-91.44
X130.048Y-101.6
T3
G00X169.901Y-99.314
M15
G01X168.427Y-99.314
M16
G05
G00X184.887Y-96.139
M15
G01X183.413Y-96.139
M16
G05
T5
G00X128.233Y-74.575
M15
G01X129.773Y-74.575
M16
G05
T6
G00X125.603Y-78.613
M15
G01X125.603Y-80.137
M16
G05
G00X131.903Y-80.137
M15
G01X131.903Y-78.613
M16
G05
M30
